<svg width="53" height="53" viewBox="0 0 53 53" fill="none" xmlns="http://www.w3.org/2000/svg">
<path fill-rule="evenodd" clip-rule="evenodd" d="M52.65 26.6552C52.65 40.9512 40.8639 52.5403 26.325 52.5403C11.7861 52.5403 0 40.9512 0 26.6552C0 12.3593 11.7861 0.770142 26.325 0.770142C40.8639 0.770142 52.65 12.3593 52.65 26.6552ZM37.9336 30.2312C39.2886 30.5372 40.4619 29.6703 40.0888 28.5128C39.8433 27.7428 39.7108 27.1462 40.187 26.4425C40.349 26.1978 40.2508 25.4533 39.9857 25.6368C39.547 25.9456 39.023 25.9362 38.5034 25.9269C37.796 25.9141 37.0969 25.9016 36.6327 26.6924C36.451 26.9983 36.1614 27.289 35.7883 27.1156C35.317 26.8963 35.4446 26.4425 35.6067 26.0856C35.9994 25.234 36.0632 24.4028 35.6607 23.536C35.4937 23.179 35.3219 22.7303 35.7981 22.5008C36.3038 22.2561 36.5738 22.6742 36.7996 23.0618C36.9321 23.2912 37.0401 23.536 37.1285 23.7807C37.3985 24.515 37.9042 24.8363 38.6307 24.6221C39.3868 24.3977 40.3686 23.949 40.1231 23.1127C39.9518 22.5269 39.8312 21.9303 39.7116 21.3387C39.5845 20.7097 39.4585 20.0863 39.2738 19.4872C39.2005 19.2501 39.0838 19.0282 38.966 18.8042C38.7292 18.354 38.4882 17.8957 38.5866 17.2895C38.6455 16.9172 38.3853 16.4838 38.0122 16.3257C37.3592 16.0504 37.1236 15.6017 37.1874 14.8878C37.2169 14.5869 37.0794 14.2453 36.721 14.1943C36.4673 14.1578 36.375 14.3599 36.2861 14.5545C36.2632 14.6046 36.2405 14.6542 36.2154 14.6991C35.9999 15.0831 35.7291 15.437 35.4584 15.7907C34.7982 16.6535 34.1384 17.5158 34.2812 18.8141C34.3253 19.2017 33.9621 19.7065 33.4319 19.579C32.9134 19.4531 33.0003 19.0461 33.08 18.6729C33.0938 18.6079 33.1075 18.544 33.1177 18.4827C33.3239 17.2283 32.9606 16.2391 31.9395 15.4895C31.867 15.4366 31.7822 15.3832 31.694 15.3277C31.2804 15.0674 30.7913 14.7595 31.1393 14.23C31.5508 13.6049 32.0115 13.9558 32.4388 14.2812C32.5517 14.3673 32.6624 14.4516 32.7691 14.5155C32.9319 14.615 33.076 14.7511 33.2204 14.8875C33.298 14.9608 33.3757 15.0342 33.4564 15.1019C33.6675 15.2753 33.9081 15.4028 34.1584 15.2498C34.993 14.7399 35.209 13.9189 35.1943 12.9807C35.1796 12.175 34.8457 11.7314 34.0504 11.4815C33.5839 11.3351 33.1625 11.0566 32.7404 10.7776C31.972 10.2698 31.2013 9.76051 30.1525 10.0436C30.1091 10.0556 30.0538 9.99326 29.9936 9.92544C29.9516 9.87812 29.9072 9.82813 29.8629 9.79879C28.6257 8.95233 27.5555 9.48774 27.531 11.0328C27.4948 13.3993 27.5087 15.7614 27.5226 18.1273C27.5238 18.3256 27.5249 18.524 27.5261 18.7224C27.527 18.7896 27.5228 18.862 27.5185 18.9361C27.4993 19.2662 27.4782 19.6292 27.8992 19.7167C28.2265 19.7838 28.414 19.4781 28.581 19.2059C28.6044 19.1678 28.6274 19.1303 28.6503 19.0946C28.7007 19.0174 28.7411 18.9313 28.7815 18.8451C28.8159 18.7719 28.8502 18.6985 28.8908 18.6306C29.0627 18.3501 29.2934 18.1309 29.6272 18.2736C30.0151 18.4419 30.0543 18.7937 29.9365 19.166C29.7156 19.8544 29.3916 20.5428 28.7632 20.8436C27.6243 21.3841 27.4033 22.2867 27.5015 23.4391C27.537 23.8441 27.528 24.2514 27.519 24.6579C27.5143 24.8707 27.5097 25.0832 27.5113 25.2952C27.5212 27.3349 28.8319 28.2629 30.7171 27.5541C31.0951 27.4114 31.4927 27.2941 31.7235 27.753C31.9296 28.166 31.6155 28.4057 31.3258 28.6046C30.4225 29.2267 30.0052 30.068 30.2114 31.2051C30.2801 31.5876 30.2016 31.9394 29.7745 32.0261C29.3572 32.1128 29.1608 31.7967 29.0136 31.4652C28.7927 30.9655 28.8172 30.4352 28.9007 29.9049C29.0087 29.2114 28.6601 28.6964 28.0612 28.6556C27.4663 28.6129 27.492 29.1081 27.5136 29.5249C27.5179 29.6069 27.522 29.6858 27.5212 29.757C27.5033 31.0737 27.5062 32.3931 27.5092 33.7112C27.5103 34.2053 27.5113 34.6992 27.5113 35.1927H27.5163C27.5163 35.8114 27.5157 36.4301 27.5152 37.0488C27.5141 38.2862 27.513 39.5236 27.5163 40.761C27.5212 41.5208 27.7617 42.4437 28.503 42.3622C29.8874 42.2041 31.3111 41.8369 32.5678 41.225C32.7485 41.1384 32.9053 40.9892 33.0669 40.8353C33.3621 40.5542 33.6738 40.2575 34.1781 40.297C34.4088 40.3123 34.6935 40.1542 34.7132 39.8279C34.7324 39.5778 34.5298 39.47 34.3414 39.3698L34.3303 39.3638C34.0472 39.2083 33.7856 38.9921 33.5239 38.7757C32.8415 38.2116 32.1582 37.6467 31.0902 38.1553C30.9721 38.209 30.7986 38.1503 30.6322 38.094C30.5771 38.0754 30.5229 38.0571 30.4716 38.0431C30.0543 37.9259 29.5732 37.7882 29.6714 37.212C29.7749 36.616 30.2432 36.7033 30.6493 36.7789C30.6671 36.7822 30.6848 36.7855 30.7023 36.7887C31.8216 36.9927 32.5433 36.4114 33.1913 35.5547C33.305 35.4057 33.3903 35.1861 33.4765 34.9641C33.6881 34.4194 33.9052 33.8605 34.561 34.2952C35.1983 34.7197 34.8021 35.3077 34.4349 35.8526C34.3213 36.0213 34.2105 36.1858 34.1339 36.34C34.1125 36.3835 34.0908 36.4264 34.0693 36.469C33.8434 36.9162 33.64 37.3191 34.1241 37.7474C34.7279 38.2777 35.4397 38.3848 36.1663 38.1706C36.8487 37.9667 37.0647 37.4007 37.2414 36.6919C37.3659 36.2019 37.6572 35.7805 37.9498 35.3574C38.4184 34.6794 38.8903 33.9968 38.6847 33.0205C38.6787 32.989 38.7565 32.9441 38.8412 32.8951C38.894 32.8646 38.9495 32.8325 38.9891 32.8012C39.2297 32.6074 39.4702 32.3831 39.3769 32.0363C39.2861 31.7129 39.0086 31.6902 38.7424 31.6685C38.7064 31.6655 38.6707 31.6626 38.6356 31.659C38.5468 31.6499 38.4562 31.6458 38.3658 31.6416C38.1516 31.6318 37.9384 31.6221 37.752 31.5468C37.6449 31.5039 37.5253 31.4653 37.4024 31.4257C36.8382 31.2436 36.2062 31.0396 36.4118 30.3026C36.5972 29.6456 37.0571 29.8581 37.4947 30.0603C37.648 30.1312 37.7986 30.2008 37.9336 30.2312ZM22.8623 27.7275C23.6282 28.1252 25.7048 27.3094 25.6655 26.5139C25.6378 25.9817 25.6995 25.4204 25.7615 24.8566C25.9413 23.2218 26.1233 21.5665 24.1338 20.5428C24.0258 20.4867 23.9374 20.3643 23.8687 20.2572C23.8209 20.1824 23.7684 20.1052 23.7147 20.0261C23.3546 19.496 22.9398 18.8855 23.5251 18.4062C24.0704 17.9624 24.2692 18.3917 24.4658 18.8162C24.5471 18.9917 24.6279 19.1663 24.7327 19.2782C24.7721 19.319 24.8102 19.3638 24.8485 19.4088C25.0108 19.5995 25.1763 19.7941 25.4544 19.7116C25.7538 19.6249 25.7538 19.3037 25.7538 19.0436C25.7538 18.6525 25.754 18.2613 25.7541 17.87C25.7547 15.5218 25.7553 13.1709 25.7342 10.8237C25.7244 10.1455 25.2973 9.32967 24.7524 9.50814C24.2503 9.67203 23.7214 9.7475 23.1941 9.82273C22.2777 9.95348 21.3662 10.0835 20.609 10.6759C20.5123 10.7514 20.4206 10.8292 20.3302 10.9059C19.9754 11.2068 19.6429 11.4888 19.1264 11.5376C18.4244 11.609 18.12 12.1291 18.0955 12.8328C18.066 13.7303 18.0513 14.643 18.9153 15.1886C19.4158 15.5044 19.7231 15.2036 20.0276 14.9057C20.1262 14.8091 20.2246 14.7128 20.3292 14.6379C20.3866 14.5965 20.4429 14.554 20.4991 14.5117C20.6159 14.4237 20.7318 14.3363 20.8544 14.2606C20.8941 14.2365 20.9343 14.2111 20.9751 14.1854C21.3488 13.9501 21.7655 13.6876 22.1063 14.1382C22.4726 14.6311 22.0977 14.893 21.7597 15.1292C21.6991 15.1715 21.6397 15.213 21.5859 15.2549C20.4666 16.1269 19.5879 17.0855 20.177 18.7122C20.3046 19.064 20.3046 19.4515 19.8775 19.5841C19.4848 19.7014 19.2344 19.426 19.0773 19.0844C19.0526 19.0301 19.0255 18.9746 18.998 18.9185C18.8838 18.6848 18.7639 18.4396 18.7877 18.2175C18.9251 17.0243 18.3606 16.2442 17.5358 15.5405C17.3575 15.3916 17.2489 15.1574 17.1409 14.9244C17.0972 14.8302 17.0537 14.7362 17.0056 14.6481C16.9847 14.6091 16.9651 14.5671 16.9454 14.5248C16.8492 14.3187 16.75 14.1063 16.4852 14.1994C16.3232 14.2555 16.1023 14.5359 16.122 14.6838C16.2447 15.6425 15.685 16.081 15.0125 16.5297C14.6394 16.7796 14.551 17.2589 14.6197 17.728L14.6223 17.7455C14.6804 18.1424 14.7376 18.5331 14.4086 18.8396C13.7508 19.4515 13.4022 20.1348 13.8097 21.068C13.9429 21.3683 13.7783 21.589 13.6129 21.8107C13.5649 21.8751 13.5168 21.9396 13.4759 22.0062C12.8573 23.021 13.0144 23.8164 13.9079 24.3569C14.9585 24.9892 15.6605 24.7394 16.2349 23.5411C16.2522 23.5051 16.2694 23.4688 16.2867 23.4325C16.3819 23.2321 16.4784 23.0289 16.6031 22.8476C16.8092 22.5416 17.0891 22.2969 17.4671 22.4805C17.8893 22.6844 17.7911 23.0669 17.6389 23.3932C17.2167 24.2907 17.202 25.1677 17.634 26.0652C17.8058 26.417 17.958 26.8606 17.5014 27.1054C17.1283 27.3043 16.8191 27.0187 16.6571 26.7077C16.3232 26.0703 15.8716 25.8918 15.1843 26.004C14.9077 26.0501 14.6146 25.9778 14.3213 25.9055C14.1928 25.8738 14.0644 25.8422 13.9374 25.8204C13.8464 25.8055 13.7554 25.7588 13.665 25.7124C13.4772 25.6159 13.2915 25.5206 13.1126 25.7133C12.8426 26.004 12.931 26.4221 13.1224 26.7026C13.4808 27.2278 13.4955 27.6663 13.2255 28.2731C12.823 29.191 13.3335 30.0221 14.2957 30.2465C14.8112 30.3689 15.307 30.2567 15.7881 30.0476C16.1956 29.8692 16.6669 29.7111 16.8731 30.2771C17.0542 30.7804 16.6672 31.006 16.317 31.2101C16.2876 31.2273 16.2585 31.2443 16.23 31.2612C15.739 31.5468 15.1941 31.6335 14.6345 31.659C13.849 31.6947 13.5397 32.0618 14.173 32.7043C14.5952 33.1377 14.7032 33.5457 14.5952 34.1168C14.5019 34.6267 14.6639 35.1723 15.091 35.4018C15.8176 35.7944 16.1121 36.3043 16.1269 37.161C16.1367 37.7933 16.662 38.1349 17.2658 38.2216C18.0267 38.3338 18.7189 38.1859 19.2295 37.5434C19.5889 37.0922 19.3605 36.7367 19.1322 36.3813C19.0767 36.2949 19.0213 36.2085 18.9742 36.1208C18.9442 36.0631 18.9138 36.0056 18.8834 35.9481C18.75 35.6955 18.6167 35.4432 18.5127 35.1774C18.3606 34.8001 18.2477 34.3666 18.7288 34.1576C19.1166 33.9842 19.362 34.2647 19.5486 34.591C19.6225 34.7201 19.6935 34.8516 19.7647 34.9833C19.9014 35.2363 20.0384 35.49 20.1966 35.7281C20.717 36.5134 21.4239 36.9315 22.3714 36.8142C22.4341 36.8065 22.4995 36.7962 22.5659 36.7858C23.0248 36.7137 23.5343 36.6337 23.5643 37.3242C23.5938 38.0177 22.8378 38.191 22.4254 38.089C21.0214 37.7474 20.015 38.4307 19.0037 39.2364C18.9341 39.2922 18.8415 39.3253 18.7492 39.3583C18.555 39.4278 18.3618 39.4969 18.3851 39.7769C18.4146 40.1389 18.768 40.2715 19.0528 40.2919C19.6157 40.3309 20.0801 40.6877 20.5444 41.0444C21.2342 41.5743 21.9237 42.1042 22.936 41.5922C22.9686 41.5752 23.0726 41.6994 23.1547 41.7974C23.1713 41.8172 23.187 41.8359 23.2011 41.8522C23.6723 42.3978 24.2271 42.663 24.9046 42.3214C25.5575 41.9899 25.7538 41.378 25.7538 40.6641C25.7506 39.4571 25.7517 38.2479 25.7528 37.0394C25.7533 36.4354 25.7538 35.8316 25.7538 35.2284H25.7588C25.7588 34.7349 25.7599 34.2409 25.7609 33.7469C25.7639 32.4287 25.7668 31.1093 25.7489 29.7927C25.7472 29.7138 25.752 29.6254 25.7571 29.5335C25.7799 29.1203 25.8064 28.6379 25.2482 28.6505C24.5805 28.6658 24.2173 29.2165 24.3253 29.9609C24.3891 30.4097 24.4185 30.8431 24.2713 31.2714C24.267 31.2838 24.2627 31.2963 24.2584 31.3087C24.1298 31.6814 23.9904 32.0852 23.5202 32.021C23.0096 31.9547 22.9949 31.5264 23.0636 31.1032C23.2207 30.1343 22.8869 29.3694 22.1701 28.7677C22.103 28.711 22.0253 28.6568 21.9466 28.6019C21.6221 28.3757 21.2816 28.1382 21.6056 27.6663C21.9127 27.2196 22.3337 27.4452 22.7246 27.6547C22.771 27.6796 22.817 27.7042 22.8623 27.7275Z" fill="#009CDE"/>
</svg>
