<svg width="12" height="12" viewBox="0 0 12 12" fill="none" xmlns="http://www.w3.org/2000/svg">
<path d="M9.75 0H8.25V1.5H9.75V0ZM11.25 0H10.5V2.25H7.5V0H4.5V2.25H1.5V0H0.75C0.335438 0 0 0.335812 0 0.75V11.25C0 11.6646 0.335438 12 0.75 12H11.25C11.6646 12 12 11.6646 12 11.25V0.75C12 0.335812 11.6646 0 11.25 0ZM10.5 10.5H1.5V3.75H10.5V10.5ZM3.75 0H2.25V1.5H3.75V0ZM6.75 5.25H5.25V6.75H6.75V5.25ZM9 5.25H7.5V6.75H9V5.25ZM4.5 7.5H3V9H4.5V7.5ZM4.5 5.25H3V6.75H4.5V5.25ZM6.75 7.5H5.25V9H6.75V7.5ZM9 7.5H7.5V9H9V7.5Z" fill="#009CDE"/>
</svg>
