<svg width="10" height="12" viewBox="0 0 10 12" fill="none" xmlns="http://www.w3.org/2000/svg">
<path d="M5.8095 6L9.91106 1.11094C9.97981 1.02969 9.922 0.90625 9.81575 0.90625H8.56888C8.49544 0.90625 8.42512 0.939062 8.37669 0.995312L4.99388 5.02813L1.61106 0.995312C1.56419 0.939062 1.49388 0.90625 1.41888 0.90625H0.172C0.0657503 0.90625 0.00793765 1.02969 0.0766877 1.11094L4.17825 6L0.0766877 10.8891C0.061287 10.9072 0.0514069 10.9293 0.04822 10.9529C0.0450331 10.9764 0.0486732 11.0004 0.0587085 11.022C0.0687439 11.0435 0.0847529 11.0617 0.104835 11.0745C0.124916 11.0872 0.148227 11.0939 0.172 11.0938H1.41888C1.49231 11.0938 1.56263 11.0609 1.61106 11.0047L4.99388 6.97188L8.37669 11.0047C8.42356 11.0609 8.49388 11.0938 8.56888 11.0938H9.81575C9.922 11.0938 9.97981 10.9703 9.91106 10.8891L5.8095 6Z" fill="#8C8C8C"/>
</svg>
