<svg width="38" height="38" viewBox="0 0 38 38" fill="none" xmlns="http://www.w3.org/2000/svg">
<path d="M19 37C28.9411 37 37 28.9411 37 19C37 9.05887 28.9411 1 19 1C9.05887 1 1 9.05887 1 19C1 28.9411 9.05887 37 19 37Z" stroke="white" stroke-width="0.986907" stroke-miterlimit="10"/>
<path d="M29.242 18.7624C29.2399 16.7609 27.6452 15.1388 25.6776 15.1367H13.796C13.5773 15.1367 13.4 14.9563 13.4 14.7338C13.4 14.5113 13.5773 14.3309 13.796 14.3309H24.0934C25.1862 14.329 26.0717 13.4282 26.0736 12.3166C26.0723 11.2046 25.1866 10.3037 24.0934 10.3023H13.0039C11.0362 10.3045 9.44158 11.9266 9.43945 13.9281V15.5395C9.44158 17.541 11.0362 19.1631 13.0039 19.1653H24.0934C24.3121 19.1653 24.4894 19.3457 24.4894 19.5681C24.4894 19.7906 24.3121 19.971 24.0934 19.971H13.0039C11.0362 19.9732 9.44158 21.5952 9.43945 23.5967V25.2082C9.44158 27.2097 11.0362 28.8318 13.0039 28.8339H16.9644C17.1831 28.8339 17.3605 29.0143 17.3605 29.2368V32.8626H21.321V28.0282C21.3202 26.6635 20.4742 25.447 19.2092 24.9918C18.8704 24.8675 18.5129 24.8043 18.1526 24.8053H13.796C13.5773 24.8053 13.4 24.6249 13.4 24.4025C13.4 24.18 13.5773 23.9996 13.796 23.9996H25.6776C27.6452 23.9974 29.2399 22.3754 29.242 20.3739V18.7624Z" fill="white"/>
</svg>
