<svg width="57" height="56" viewBox="0 0 57 56" fill="none" xmlns="http://www.w3.org/2000/svg">
<path d="M28.5 55.0809C43.6878 55.0809 56 42.9745 56 28.0404C56 13.1064 43.6878 1 28.5 1C13.3122 1 1 13.1064 1 28.0404C1 42.9745 13.3122 55.0809 28.5 55.0809Z" stroke="white" stroke-width="0.986907" stroke-miterlimit="10"/>
<path d="M45.4845 16.4087C41.6426 12.631 35.4753 12.631 31.6334 16.4087L29.0047 18.9934L26.3761 16.4087C22.5342 12.631 16.3669 12.631 12.525 16.4087C8.68308 20.1864 8.68308 26.2506 12.525 30.0283L29.0047 46.2327L45.4845 30.0283C49.3264 26.2506 49.3264 20.1864 45.4845 16.4087Z" fill="white"/>
</svg>
