<svg width="57" height="57" viewBox="0 0 57 57" fill="none" xmlns="http://www.w3.org/2000/svg">
<path d="M1.31641 28.5C1.31641 13.4874 13.4873 1.31647 28.5 1.31647C43.5126 1.31647 55.6835 13.4874 55.6835 28.5C55.6835 43.5127 43.5126 55.6836 28.5 55.6836C13.4873 55.6836 1.31641 43.5127 1.31641 28.5Z" stroke="white" stroke-miterlimit="10"/>
<path d="M45.8864 31.6899C46.3674 33.1266 44.8548 34.2026 43.1079 33.8228C42.437 33.6772 41.4687 32.8102 41.1459 33.9114C40.8231 35.0253 42.1016 35.1583 42.8737 35.4557C43.2155 35.5886 43.6269 35.557 44.013 35.595C44.3927 35.6329 44.8358 35.6076 44.9687 36.0633C45.0889 36.4937 44.7788 36.7722 44.4687 37.0127C44.3358 37.114 44.0636 37.2215 44.0763 37.2848C44.5067 39.2532 42.6332 40.2595 42.2155 41.8418C41.9877 42.7215 41.7092 43.4241 40.8294 43.6772C39.8927 43.9431 38.975 43.8102 38.1965 43.1519C37.513 42.5696 37.8927 42.0253 38.2092 41.4051C38.6269 40.595 39.8358 39.557 38.7598 38.8671C37.57 38.1076 37.5003 39.7912 36.994 40.4304C36.1586 41.4937 35.2282 42.2152 33.7851 41.9621C33.2472 41.8671 32.5953 41.7152 32.456 42.4874C32.3294 43.2026 32.9497 43.3734 33.4877 43.519C33.7535 43.5886 34.0826 43.7469 34.2851 43.6583C36.1902 42.7848 37.1459 44.462 38.4624 45.1583C38.7092 45.2848 38.9813 45.4177 38.956 45.7342C38.9307 46.1393 38.5636 46.3355 38.2662 46.3165C37.2598 46.2405 36.8484 47.1646 36.1902 47.4684C34.5699 48.2279 32.7345 48.6836 30.9497 48.8798C29.994 48.981 29.6839 47.8355 29.6775 46.8924C29.6712 44.5886 29.6775 42.2848 29.6775 39.981H29.6712C29.6712 37.7342 29.6522 35.481 29.6839 33.2342C29.6902 32.6962 29.4624 31.8038 30.3801 31.8671C31.1522 31.9177 31.6016 32.557 31.4624 33.4177C31.3548 34.076 31.3231 34.7342 31.6079 35.3545C31.7978 35.7658 32.051 36.1583 32.5889 36.0507C33.1396 35.9431 33.2408 35.5064 33.1522 35.0317C32.8864 33.6203 33.4244 32.576 34.5889 31.8038C34.9624 31.557 35.3674 31.2595 35.1016 30.7469C34.8041 30.1772 34.2915 30.3228 33.8041 30.5C31.3737 31.3798 29.6839 30.2279 29.6712 27.6962C29.6649 26.9304 29.7282 26.1583 29.6586 25.3924C29.532 23.9621 29.8168 22.8418 31.2851 22.1709C32.0953 21.7975 32.513 20.9431 32.7978 20.0886C32.9497 19.6266 32.8991 19.1899 32.3991 18.981C31.9687 18.8038 31.6712 19.076 31.4497 19.4241C31.3358 19.6076 31.2598 19.8228 31.1396 20C30.8991 20.3608 30.6522 20.8671 30.1712 20.7722C29.5067 20.6393 29.6965 19.9937 29.6902 19.538C29.6712 16.3545 29.6459 13.1772 29.6965 9.9937C29.7282 8.07598 31.1079 7.41142 32.7029 8.46205C32.8421 8.55066 32.9813 8.79117 33.0763 8.76585C35.1712 8.22154 36.4054 10.038 38.1016 10.5507C39.1269 10.8608 39.5573 11.4114 39.5763 12.4114C39.5953 13.576 39.3168 14.595 38.2408 15.2279C37.9181 15.4177 37.6079 15.2595 37.3358 15.0443C37.0383 14.8038 36.7725 14.5064 36.4497 14.3165C35.7915 13.9367 35.0193 12.981 34.3484 13.9621C33.8041 14.7595 34.8484 15.1519 35.3801 15.5253C36.6965 16.4557 37.1649 17.6836 36.8991 19.2405C36.8105 19.7532 36.5193 20.4177 37.3041 20.6013C37.9877 20.7595 38.456 20.1329 38.3991 19.6519C38.1396 17.3798 39.937 16.1836 40.8927 14.5443C41.051 14.2722 41.1332 13.8608 41.5446 13.9177C42.0067 13.981 42.1839 14.4051 42.1459 14.7785C42.0636 15.6646 42.3674 16.2215 43.2092 16.5633C43.6902 16.7595 44.0256 17.2975 43.9497 17.7595C43.7598 18.8861 44.551 19.6013 44.8358 20.4874C45.2978 21.9304 45.475 23.4874 45.9307 24.9874C46.2472 26.0253 44.9813 26.5823 44.0067 26.8608C43.0699 27.1266 42.4181 26.7279 42.07 25.8165C41.956 25.5127 41.8168 25.2089 41.6459 24.9241C41.3548 24.4431 41.0067 23.9241 40.3548 24.2279C39.7408 24.5127 39.9624 25.0696 40.1775 25.5127C40.6965 26.5886 40.6143 27.6203 40.1079 28.6772C39.8991 29.1203 39.7345 29.6836 40.3421 29.9557C40.8231 30.1709 41.1965 29.8102 41.4307 29.4304C42.4687 27.7279 44.4181 29.0253 45.7535 28.1203C46.0953 27.8924 46.2219 28.8165 46.013 29.1203C45.3991 29.9937 45.57 30.7342 45.8864 31.6899ZM27.2915 29.2089C27.3421 30.1962 24.6649 31.2089 23.6775 30.7152C23.1269 30.4431 22.5003 30.019 22.0573 30.6393C21.5383 31.3671 22.3421 31.6456 22.7851 32.0064C23.7092 32.7532 24.1396 33.7026 23.937 34.9051C23.8484 35.4304 23.8674 35.9621 24.5256 36.0443C25.1522 36.1266 25.3231 35.5886 25.494 35.114C25.6839 34.5823 25.6459 34.0443 25.5636 33.4874C25.4244 32.5633 25.8927 31.8798 26.7535 31.8608C27.6332 31.8418 27.3864 32.7405 27.3991 33.2785C27.4307 35.5253 27.4117 37.7785 27.4117 40.0253H27.4054C27.4054 42.2722 27.3991 44.5253 27.4054 46.7722C27.4054 47.6583 27.1522 48.4177 26.3105 48.8291C25.437 49.2532 24.7218 48.9241 24.1143 48.2469C24.0067 48.1266 23.8231 47.8988 23.7725 47.9241C21.5889 48.9874 20.5699 46.4304 18.7661 46.3102C18.3991 46.2848 17.9434 46.1203 17.9054 45.6709C17.8611 45.1583 18.4244 45.2152 18.7029 45C20.0067 44 21.3041 43.1519 23.1143 43.576C23.6459 43.7026 24.6206 43.4874 24.5826 42.6266C24.5383 41.6456 23.6839 41.9177 23.0446 41.9937C21.8231 42.1393 20.9117 41.6203 20.2408 40.6456C19.9307 40.1962 19.6839 39.7026 19.4054 39.2342C19.1649 38.8291 18.8484 38.481 18.3484 38.6962C17.7282 38.9557 17.8737 39.4937 18.0699 39.9621C18.2345 40.3671 18.456 40.7469 18.6649 41.1329C18.975 41.6899 19.5699 42.2026 18.994 42.8988C18.3358 43.6962 17.4434 43.8798 16.4624 43.7405C15.6839 43.6329 15.0067 43.2089 14.994 42.4241C14.975 41.3608 14.5953 40.7279 13.6586 40.2405C13.1079 39.9557 12.8991 39.2785 13.0193 38.6456C13.1586 37.9367 13.0193 37.4304 12.475 36.8924C11.6586 36.095 12.0573 35.6393 13.0699 35.595C13.7915 35.5633 14.494 35.4557 15.1269 35.1013C15.6016 34.8291 16.2092 34.557 15.956 33.8798C15.6902 33.1772 15.0826 33.3734 14.5573 33.595C13.937 33.8545 13.2978 33.9937 12.6332 33.8418C11.3927 33.5633 10.7345 32.5317 11.2535 31.3924C11.6016 30.6393 11.5826 30.095 11.1206 29.4431C10.8737 29.095 10.7598 28.576 11.1079 28.2152C11.4497 27.8608 11.8105 28.2912 12.1712 28.3481C12.7092 28.4367 13.2661 28.6583 13.7788 28.576C14.6649 28.4367 15.2472 28.6583 15.6775 29.4494C15.8864 29.8355 16.2851 30.1899 16.7661 29.9431C17.3548 29.6393 17.1586 29.0886 16.937 28.6519C16.3801 27.538 16.3991 26.4494 16.9434 25.3355C17.1396 24.9304 17.2661 24.4557 16.7218 24.2026C16.2345 23.9747 15.8737 24.2785 15.6079 24.6583C15.418 24.9241 15.2788 25.2279 15.1332 25.519C14.3927 27.0064 13.4877 27.3165 12.1332 26.5317C10.9813 25.8608 10.7788 24.8734 11.5763 23.6139C11.8105 23.2469 12.2282 22.9304 12.0067 22.4494C11.4813 21.2912 11.9307 20.4431 12.7788 19.6836C13.2092 19.2975 13.1269 18.8038 13.051 18.3038C12.9624 17.7215 13.0763 17.1266 13.5573 16.8165C14.4244 16.2595 15.1459 15.7152 14.9877 14.5253C14.9624 14.3418 15.2472 13.9937 15.456 13.9241C15.8674 13.7848 15.9687 14.1962 16.1269 14.481C16.3421 14.8608 16.4877 15.3291 16.8105 15.5886C17.8737 16.4621 18.6016 17.4304 18.4244 18.9114C18.3864 19.2532 18.6332 19.6393 18.7978 19.9874C19.0003 20.4114 19.3231 20.7532 19.8294 20.6076C20.3801 20.4431 20.3801 19.9621 20.2155 19.5253C19.456 17.5064 20.5889 16.3165 22.032 15.2342C22.4877 14.8924 23.2598 14.5696 22.7029 13.8481C22.2155 13.2279 21.6079 13.6962 21.0889 14C20.8548 14.1393 20.6396 14.3102 20.4117 14.4684C19.8611 14.8481 19.4434 15.6709 18.5889 15.1519C17.475 14.4747 17.494 13.3418 17.532 12.2279C17.5636 11.3545 17.956 10.7089 18.8611 10.6203C19.6965 10.5443 20.1586 10.0127 20.7725 9.55066C22.3105 8.39243 24.3421 8.65825 26.1143 8.10129C26.8168 7.87977 27.3674 8.89243 27.3801 9.7342C27.4117 13.1329 27.4054 16.538 27.4054 19.9367C27.4054 20.2595 27.4054 20.6583 27.0193 20.7658C26.5763 20.8924 26.3548 20.4937 26.0889 20.2279C25.6269 19.7532 25.5256 18.3671 24.532 19.1456C23.6649 19.8291 24.5003 20.7279 24.975 21.4431C25.0636 21.576 25.1775 21.7279 25.3168 21.7975C28.7661 23.5064 27.1522 26.6329 27.2915 29.2089Z" fill="white"/>
</svg>
