<svg width="53" height="52" viewBox="0 0 53 52" fill="none" xmlns="http://www.w3.org/2000/svg">
<path fill-rule="evenodd" clip-rule="evenodd" d="M52.65 25.8851C52.65 40.181 40.8639 51.7702 26.325 51.7702C11.7861 51.7702 0 40.181 0 25.8851C0 11.5891 11.7861 0 26.325 0C40.8639 0 52.65 11.5891 52.65 25.8851ZM20.0836 38.3417C23.9324 40.4157 29.5621 40.7768 34.0621 37.6566C40.63 33.1012 41.2141 25.4164 39.3566 21.787C36.6663 16.5743 33.1334 17.7131 31.2568 18.8612C31.2315 18.7898 31.2063 18.7177 31.1808 18.6449C31.0807 18.3588 30.9768 18.062 30.8547 17.7594C29.5047 14.3059 31.4578 12.2782 31.5632 12.1763C32.061 11.6949 32.061 10.9079 31.5632 10.4264C31.0653 9.9357 30.2515 9.9357 29.744 10.4172C29.6004 10.5468 26.4792 13.6114 28.4419 18.639C29.476 21.287 30.2419 24.7961 28.0015 26.4627C26.3643 27.6848 25.1388 27.3145 23.291 26.7497C21.8165 26.296 20.141 25.7868 18.0443 26.0831C13.6879 26.7034 11.821 30.2032 11.5337 33.2679C11.3997 34.6845 11.8114 39.6379 13.3241 41.286C13.5731 41.5638 13.9273 41.7026 14.2816 41.7026C14.5879 41.7026 14.8847 41.6008 15.1337 41.3879C15.6603 40.9342 15.7081 40.1472 15.239 39.6379C14.5784 38.9158 13.9369 35.1011 14.0901 33.4901C14.1284 33.1105 14.2337 32.4068 14.5305 31.6383C15.4305 33.4994 17.3645 36.8788 20.0836 38.3417Z" fill="#00B140"/>
</svg>
