<svg width="57" height="56" viewBox="0 0 57 56" fill="none" xmlns="http://www.w3.org/2000/svg">
<path d="M28.5 55.0809C43.6878 55.0809 56 42.9745 56 28.0404C56 13.1064 43.6878 1 28.5 1C13.3122 1 1 13.1064 1 28.0404C1 42.9745 13.3122 55.0809 28.5 55.0809Z" stroke="white" stroke-width="0.986907" stroke-miterlimit="10"/>
<path d="M39.9255 19.5882C39.9255 13.2258 34.7693 8.1557 28.2987 8.1557C21.8281 8.1557 16.6719 13.2258 16.6719 19.5882C16.6719 25.2548 20.9182 30.0267 26.4788 30.822V36.8862H23.2436C22.3336 36.8862 21.5248 37.6815 21.5248 38.5762C21.5248 39.4709 22.3336 40.2662 23.2436 40.2662H26.4788V44.8392C26.4788 45.734 27.2877 46.5293 28.1976 46.5293C29.1075 46.5293 29.9164 45.734 29.9164 44.8392V40.2662H33.556C34.466 40.2662 35.2748 39.4709 35.2748 38.5762C35.2748 37.6815 34.466 36.8862 33.556 36.8862H29.9164V30.9214C35.477 30.2255 39.9255 25.3542 39.9255 19.5882Z" fill="white"/>
</svg>
