<svg width="53" height="52" viewBox="0 0 53 52" fill="none" xmlns="http://www.w3.org/2000/svg">
<path fill-rule="evenodd" clip-rule="evenodd" d="M52.65 26.0003C52.65 40.2962 40.8639 51.8854 26.325 51.8854C11.7861 51.8854 0 40.2962 0 26.0003C0 11.7044 11.7861 0.115234 26.325 0.115234C40.8639 0.115234 52.65 11.7044 52.65 26.0003ZM37.9336 29.5763C39.2886 29.8822 40.4619 29.0154 40.0888 27.8579C39.8433 27.0879 39.7108 26.4913 40.187 25.7876C40.349 25.5428 40.2508 24.7984 39.9857 24.9819C39.547 25.2907 39.023 25.2813 38.5034 25.2719C37.796 25.2592 37.0969 25.2466 36.6327 26.0375C36.451 26.3434 36.1614 26.6341 35.7883 26.4607C35.317 26.2414 35.4446 25.7876 35.6067 25.4307C35.9994 24.5791 36.0632 23.7479 35.6607 22.8811C35.4937 22.5241 35.3219 22.0754 35.7981 21.8459C36.3038 21.6012 36.5738 22.0193 36.7996 22.4068C36.9321 22.6363 37.0401 22.8811 37.1285 23.1258C37.3985 23.8601 37.9042 24.1814 38.6307 23.9672C39.3868 23.7428 40.3686 23.2941 40.1231 22.4578C39.9518 21.872 39.8312 21.2754 39.7116 20.6837C39.5845 20.0548 39.4585 19.4314 39.2738 18.8323C39.2005 18.5952 39.0838 18.3733 38.966 18.1493C38.7292 17.6991 38.4882 17.2407 38.5866 16.6346C38.6455 16.2623 38.3853 15.8289 38.0122 15.6708C37.3592 15.3955 37.1236 14.9468 37.1874 14.2329C37.2169 13.932 37.0794 13.5904 36.721 13.5394C36.4673 13.5029 36.375 13.705 36.2861 13.8996C36.2632 13.9497 36.2405 13.9993 36.2154 14.0442C35.9999 14.4282 35.7291 14.782 35.4584 15.1358C34.7982 15.9986 34.1384 16.8609 34.2812 18.1592C34.3253 18.5468 33.9621 19.0516 33.4319 18.9241C32.9134 18.7982 33.0003 18.3912 33.08 18.018C33.0938 17.953 33.1075 17.8891 33.1177 17.8278C33.3239 16.5734 32.9606 15.5841 31.9395 14.8346C31.867 14.7817 31.7822 14.7283 31.694 14.6728C31.2804 14.4125 30.7913 14.1046 31.1393 13.5751C31.5508 12.95 32.0115 13.3009 32.4388 13.6263C32.5517 13.7124 32.6624 13.7967 32.7691 13.8606C32.9319 13.9601 33.076 14.0962 33.2204 14.2325C33.298 14.3059 33.3757 14.3793 33.4564 14.447C33.6675 14.6204 33.9081 14.7479 34.1584 14.5949C34.993 14.085 35.209 13.264 35.1943 12.3258C35.1796 11.5201 34.8457 11.0765 34.0504 10.8266C33.5839 10.6802 33.1625 10.4017 32.7404 10.1227C31.972 9.6149 31.2013 9.10561 30.1525 9.38865C30.1091 9.40066 30.0538 9.33836 29.9936 9.27053C29.9516 9.22322 29.9072 9.17322 29.8629 9.14388C28.6257 8.29742 27.5555 8.83284 27.531 10.3779C27.4948 12.7444 27.5087 15.1065 27.5226 17.4723C27.5238 17.6707 27.5249 17.8691 27.5261 18.0674C27.527 18.1347 27.5228 18.2071 27.5185 18.2812C27.4993 18.6113 27.4782 18.9743 27.8992 19.0618C28.2265 19.1289 28.414 18.8232 28.581 18.551C28.6044 18.5129 28.6274 18.4754 28.6503 18.4397C28.7007 18.3625 28.7411 18.2764 28.7815 18.1902C28.8159 18.1169 28.8502 18.0436 28.8908 17.9757C29.0627 17.6952 29.2934 17.4759 29.6272 17.6187C30.0151 17.787 30.0543 18.1388 29.9365 18.5111C29.7156 19.1995 29.3916 19.8879 28.7632 20.1887C27.6243 20.7292 27.4033 21.6318 27.5015 22.7842C27.537 23.1892 27.528 23.5965 27.519 24.003C27.5143 24.2158 27.5097 24.4283 27.5113 24.6403C27.5212 26.68 28.8319 27.608 30.7171 26.8992C31.0951 26.7565 31.4927 26.6392 31.7235 27.0981C31.9296 27.5111 31.6155 27.7508 31.3258 27.9497C30.4225 28.5718 30.0052 29.4131 30.2114 30.5502C30.2801 30.9327 30.2016 31.2845 29.7745 31.3712C29.3572 31.4579 29.1608 31.1417 29.0136 30.8103C28.7927 30.3106 28.8172 29.7803 28.9007 29.25C29.0087 28.5565 28.6601 28.0414 28.0612 28.0007C27.4663 27.958 27.492 28.4532 27.5136 28.87C27.5179 28.952 27.522 29.0309 27.5212 29.1021C27.5033 30.4188 27.5062 31.7382 27.5092 33.0563C27.5103 33.5504 27.5113 34.0443 27.5113 34.5378H27.5163C27.5163 35.1565 27.5157 35.7752 27.5152 36.3939C27.5141 37.6313 27.513 38.8687 27.5163 40.1061C27.5212 40.8659 27.7617 41.7888 28.503 41.7072C29.8874 41.5492 31.3111 41.182 32.5678 40.5701C32.7485 40.4835 32.9053 40.3343 33.0669 40.1803C33.3621 39.8993 33.6738 39.6025 34.1781 39.6421C34.4088 39.6574 34.6935 39.4993 34.7132 39.173C34.7324 38.9229 34.5298 38.8151 34.3414 38.7149L34.3303 38.7089C34.0472 38.5534 33.7856 38.3372 33.5239 38.1208C32.8415 37.5567 32.1582 36.9918 31.0902 37.5004C30.9721 37.5541 30.7986 37.4954 30.6322 37.4391C30.5771 37.4205 30.5229 37.4022 30.4716 37.3882C30.0543 37.271 29.5732 37.1333 29.6714 36.5571C29.7749 35.9611 30.2432 36.0484 30.6493 36.124C30.6671 36.1273 30.6848 36.1306 30.7023 36.1338C31.8216 36.3378 32.5433 35.7565 33.1913 34.8998C33.305 34.7507 33.3903 34.5311 33.4765 34.3092C33.6881 33.7645 33.9052 33.2056 34.561 33.6403C35.1983 34.0648 34.8021 34.6528 34.4349 35.1977C34.3213 35.3664 34.2105 35.5309 34.1339 35.6851C34.1125 35.7286 34.0908 35.7715 34.0693 35.8141C33.8434 36.2613 33.64 36.6642 34.1241 37.0925C34.7279 37.6228 35.4397 37.7299 36.1663 37.5157C36.8487 37.3118 37.0647 36.7457 37.2414 36.037C37.3659 35.547 37.6572 35.1256 37.9498 34.7025C38.4184 34.0245 38.8903 33.3419 38.6847 32.3655C38.6787 32.3341 38.7565 32.2892 38.8412 32.2402C38.894 32.2097 38.9495 32.1776 38.9891 32.1463C39.2297 31.9525 39.4702 31.7282 39.3769 31.3814C39.2861 31.058 39.0086 31.0353 38.7424 31.0136C38.7064 31.0106 38.6707 31.0077 38.6356 31.0041C38.5468 30.995 38.4562 30.9908 38.3658 30.9867C38.1516 30.9769 37.9384 30.9672 37.752 30.8919C37.6449 30.849 37.5253 30.8104 37.4024 30.7708C36.8382 30.5887 36.2062 30.3847 36.4118 29.6477C36.5972 28.9907 37.0571 29.2032 37.4947 29.4054C37.648 29.4763 37.7986 29.5459 37.9336 29.5763ZM22.8623 27.0726C23.6282 27.4703 25.7048 26.6545 25.6655 25.859C25.6378 25.3268 25.6995 24.7655 25.7615 24.2017C25.9413 22.5669 26.1233 20.9116 24.1338 19.8879C24.0258 19.8318 23.9374 19.7094 23.8687 19.6023C23.8209 19.5275 23.7684 19.4503 23.7147 19.3712C23.3546 18.8411 22.9398 18.2305 23.5251 17.7513C24.0704 17.3075 24.2692 17.7368 24.4658 18.1613C24.5471 18.3368 24.6279 18.5114 24.7327 18.6233C24.7721 18.6641 24.8102 18.7089 24.8485 18.7539C25.0108 18.9446 25.1763 19.1392 25.4544 19.0567C25.7538 18.97 25.7538 18.6488 25.7538 18.3887C25.7538 17.9976 25.754 17.6064 25.7541 17.2151C25.7547 14.8669 25.7553 12.516 25.7342 10.1688C25.7244 9.49063 25.2973 8.67476 24.7524 8.85323C24.2503 9.01713 23.7214 9.09259 23.1941 9.16782C22.2777 9.29857 21.3662 9.42862 20.609 10.0209C20.5123 10.0965 20.4206 10.1743 20.3302 10.251C19.9754 10.5519 19.6429 10.8339 19.1264 10.8827C18.4244 10.9541 18.12 11.4742 18.0955 12.1779C18.066 13.0754 18.0513 13.9881 18.9153 14.5337C19.4158 14.8495 19.7231 14.5487 20.0276 14.2508C20.1262 14.1542 20.2246 14.0579 20.3292 13.983C20.3866 13.9416 20.4429 13.8991 20.4991 13.8568C20.6159 13.7688 20.7318 13.6814 20.8544 13.6057C20.8941 13.5816 20.9343 13.5562 20.9751 13.5305C21.3488 13.2951 21.7655 13.0327 22.1063 13.4833C22.4726 13.9762 22.0977 14.2381 21.7597 14.4743C21.6991 14.5166 21.6397 14.5581 21.5859 14.6C20.4666 15.472 19.5879 16.4306 20.177 18.0573C20.3046 18.4091 20.3046 18.7966 19.8775 18.9292C19.4848 19.0465 19.2344 18.7711 19.0773 18.4295C19.0526 18.3752 19.0255 18.3197 18.998 18.2636C18.8838 18.0299 18.7639 17.7847 18.7877 17.5626C18.9251 16.3694 18.3606 15.5892 17.5358 14.8856C17.3575 14.7367 17.2489 14.5025 17.1409 14.2695C17.0972 14.1753 17.0537 14.0813 17.0056 13.9932C16.9847 13.9542 16.9651 13.9122 16.9454 13.8699C16.8492 13.6638 16.75 13.4514 16.4852 13.5445C16.3232 13.6006 16.1023 13.881 16.122 14.0289C16.2447 14.9875 15.685 15.4261 15.0125 15.8748C14.6394 16.1247 14.551 16.604 14.6197 17.0731L14.6223 17.0906C14.6804 17.4874 14.7376 17.8782 14.4086 18.1847C13.7508 18.7966 13.4022 19.4799 13.8097 20.4131C13.9429 20.7134 13.7783 20.934 13.6129 21.1558C13.5649 21.2202 13.5168 21.2847 13.4759 21.3513C12.8573 22.3661 13.0144 23.1615 13.9079 23.702C14.9585 24.3343 15.6605 24.0845 16.2349 22.8862C16.2522 22.8502 16.2694 22.8139 16.2867 22.7776C16.3819 22.5772 16.4784 22.374 16.6031 22.1927C16.8092 21.8867 17.0891 21.642 17.4671 21.8255C17.8893 22.0295 17.7911 22.4119 17.6389 22.7383C17.2167 23.6358 17.202 24.5128 17.634 25.4103C17.8058 25.7621 17.958 26.2057 17.5014 26.4505C17.1283 26.6494 16.8191 26.3638 16.6571 26.0528C16.3232 25.4154 15.8716 25.2369 15.1843 25.3491C14.9077 25.3952 14.6146 25.3229 14.3213 25.2506C14.1928 25.2189 14.0644 25.1872 13.9374 25.1655C13.8464 25.1506 13.7554 25.1039 13.665 25.0574C13.4772 24.961 13.2915 24.8657 13.1126 25.0584C12.8426 25.3491 12.931 25.7672 13.1224 26.0477C13.4808 26.5729 13.4955 27.0114 13.2255 27.6182C12.823 28.5361 13.3335 29.3672 14.2957 29.5916C14.8112 29.714 15.307 29.6018 15.7881 29.3927C16.1956 29.2143 16.6669 29.0562 16.8731 29.6222C17.0542 30.1255 16.6672 30.3511 16.317 30.5552C16.2876 30.5724 16.2585 30.5893 16.23 30.6063C15.739 30.8919 15.1941 30.9786 14.6345 31.0041C13.849 31.0398 13.5397 31.4069 14.173 32.0494C14.5952 32.4828 14.7032 32.8908 14.5952 33.4619C14.5019 33.9718 14.6639 34.5174 15.091 34.7469C15.8176 35.1395 16.1121 35.6494 16.1269 36.5061C16.1367 37.1384 16.662 37.48 17.2658 37.5667C18.0267 37.6789 18.7189 37.531 19.2295 36.8885C19.5889 36.4373 19.3605 36.0818 19.1322 35.7264C19.0767 35.64 19.0213 35.5536 18.9742 35.4658C18.9442 35.4082 18.9138 35.3507 18.8834 35.2932C18.75 35.0406 18.6167 34.7883 18.5127 34.5225C18.3606 34.1452 18.2477 33.7117 18.7288 33.5027C19.1166 33.3293 19.362 33.6097 19.5486 33.9361C19.6225 34.0652 19.6935 34.1967 19.7647 34.3284C19.9014 34.5814 20.0384 34.835 20.1966 35.0732C20.717 35.8585 21.4239 36.2766 22.3714 36.1593C22.4341 36.1516 22.4995 36.1413 22.5659 36.1309C23.0248 36.0588 23.5343 35.9788 23.5643 36.6693C23.5938 37.3627 22.8378 37.5361 22.4254 37.4341C21.0214 37.0925 20.015 37.7758 19.0037 38.5814C18.9341 38.6373 18.8415 38.6704 18.7492 38.7034C18.555 38.7729 18.3618 38.842 18.3851 39.122C18.4146 39.484 18.768 39.6166 19.0528 39.637C19.6157 39.676 20.0801 40.0328 20.5444 40.3895C21.2342 40.9194 21.9237 41.4492 22.936 40.9373C22.9686 40.9203 23.0726 41.0445 23.1547 41.1425C23.1713 41.1623 23.187 41.181 23.2011 41.1973C23.6723 41.7429 24.2271 42.0081 24.9046 41.6665C25.5575 41.335 25.7538 40.7231 25.7538 40.0092C25.7506 38.8022 25.7517 37.593 25.7528 36.3845C25.7533 35.7805 25.7538 35.1767 25.7538 34.5735H25.7588C25.7588 34.08 25.7599 33.586 25.7609 33.0919C25.7639 31.7738 25.7668 30.4544 25.7489 29.1378C25.7472 29.0589 25.752 28.9704 25.7571 28.8786C25.7799 28.4654 25.8064 27.983 25.2482 27.9956C24.5805 28.0108 24.2173 28.5616 24.3253 29.306C24.3891 29.7548 24.4185 30.1882 24.2713 30.6165C24.267 30.6289 24.2627 30.6413 24.2584 30.6538C24.1298 31.0265 23.9904 31.4303 23.5202 31.3661C23.0096 31.2998 22.9949 30.8715 23.0636 30.4483C23.2207 29.4794 22.8869 28.7145 22.1701 28.1128C22.103 28.0561 22.0253 28.0019 21.9466 27.947C21.6221 27.7208 21.2816 27.4833 21.6056 27.0114C21.9127 26.5647 22.3337 26.7903 22.7246 26.9998C22.771 27.0247 22.817 27.0493 22.8623 27.0726Z" fill="#009CDE"/>
</svg>
