<svg width="53" height="52" viewBox="0 0 53 52" fill="none" xmlns="http://www.w3.org/2000/svg">
<path fill-rule="evenodd" clip-rule="evenodd" d="M52.65 25.8851C52.65 40.181 40.8639 51.7702 26.325 51.7702C11.7861 51.7702 0 40.181 0 25.8851C0 11.5891 11.7861 0 26.325 0C40.8639 0 52.65 11.5891 52.65 25.8851ZM28.0328 16.7511C31.1717 13.5904 36.2106 13.5904 39.3495 16.7511C42.4885 19.9118 42.4885 24.9855 39.3495 28.1461L25.8851 41.7037L12.4206 28.1461C9.28168 24.9855 9.28168 19.9118 12.4206 16.7511C15.5596 13.5904 20.5984 13.5904 23.7374 16.7511L25.8851 18.9137L28.0328 16.7511Z" fill="#D40030"/>
</svg>
