<svg width="53" height="52" viewBox="0 0 53 52" fill="none" xmlns="http://www.w3.org/2000/svg">
<path fill-rule="evenodd" clip-rule="evenodd" d="M52.65 25.8851C52.65 40.181 40.8639 51.7702 26.325 51.7702C11.7861 51.7702 0 40.181 0 25.8851C0 11.5891 11.7861 0 26.325 0C40.8639 0 52.65 11.5891 52.65 25.8851ZM26.6041 7.1903C32.6064 7.1903 37.3896 12.1304 37.3896 18.3297C37.3896 23.9478 33.2629 28.6941 28.1047 29.3722V35.184H31.481C32.3251 35.184 33.0754 35.959 33.0754 36.8307C33.0754 37.7025 32.3251 38.4774 31.481 38.4774H28.1047V42.9332C28.1047 43.805 27.3544 44.5799 26.5103 44.5799C25.6662 44.5799 24.9159 43.805 24.9159 42.9332V38.4774H21.9148C21.0707 38.4774 20.3204 37.7025 20.3204 36.8307C20.3204 35.959 21.0707 35.184 21.9148 35.184H24.9159V29.2753C19.7577 28.5004 15.8187 23.8509 15.8187 18.3297C15.8187 12.1304 20.6018 7.1903 26.6041 7.1903Z" fill="#D985B7"/>
</svg>
