<svg width="50" height="50" viewBox="0 0 50 50" fill="none" xmlns="http://www.w3.org/2000/svg">
<rect width="50" height="50" fill="#149BDC"/>
<path d="M33.4595 31.1426C32.999 30.0517 32.3307 29.0608 31.4918 28.2251C30.6554 27.387 29.6647 26.7188 28.5743 26.2573C28.5645 26.2524 28.5547 26.25 28.545 26.2451C30.066 25.1465 31.0547 23.3569 31.0547 21.3379C31.0547 17.9932 28.3448 15.2832 25.0001 15.2832C21.6553 15.2832 18.9454 17.9932 18.9454 21.3379C18.9454 23.3569 19.9341 25.1465 21.4551 26.2476C21.4454 26.2524 21.4356 26.2549 21.4258 26.2598C20.3321 26.7212 19.3506 27.3828 18.5084 28.2275C17.6703 29.0639 17.002 30.0546 16.5406 31.145C16.0873 32.2125 15.8428 33.357 15.8204 34.5166C15.8197 34.5427 15.8243 34.5686 15.8338 34.5928C15.8433 34.6171 15.8576 34.6392 15.8758 34.6579C15.894 34.6765 15.9158 34.6914 15.9398 34.7015C15.9638 34.7116 15.9896 34.7168 16.0157 34.7168H17.4805C17.588 34.7168 17.6734 34.6313 17.6758 34.5264C17.7247 32.6416 18.4815 30.8765 19.8194 29.5386C21.2037 28.1543 23.0421 27.3926 25.0001 27.3926C26.9581 27.3926 28.7964 28.1543 30.1807 29.5386C31.5186 30.8765 32.2755 32.6416 32.3243 34.5264C32.3267 34.6338 32.4122 34.7168 32.5196 34.7168H33.9844C34.0105 34.7168 34.0363 34.7116 34.0603 34.7015C34.0843 34.6914 34.1061 34.6765 34.1243 34.6579C34.1425 34.6392 34.1568 34.6171 34.1663 34.5928C34.1758 34.5686 34.1804 34.5427 34.1798 34.5166C34.1553 33.3496 33.9136 32.2144 33.4595 31.1426ZM25.0001 25.5371C23.8795 25.5371 22.8248 25.1001 22.0313 24.3066C21.2379 23.5132 20.8008 22.4585 20.8008 21.3379C20.8008 20.2173 21.2379 19.1626 22.0313 18.3691C22.8248 17.5757 23.8795 17.1387 25.0001 17.1387C26.1207 17.1387 27.1754 17.5757 27.9688 18.3691C28.7623 19.1626 29.1993 20.2173 29.1993 21.3379C29.1993 22.4585 28.7623 23.5132 27.9688 24.3066C27.1754 25.1001 26.1207 25.5371 25.0001 25.5371Z" fill="white"/>
</svg>
