<svg width="40" height="40" viewBox="0 0 40 40" fill="none" xmlns="http://www.w3.org/2000/svg">
<circle cx="20" cy="20" r="20" fill="#149BDC"/>
<path d="M27.8041 26.8637L23.9576 23.0171C24.911 21.8547 25.4857 20.3657 25.4857 18.7429C25.4857 15.0204 22.4653 12 18.7429 12C15.0171 12 12 15.0204 12 18.7429C12 22.4653 15.0171 25.4857 18.7429 25.4857C20.3657 25.4857 21.8514 24.9143 23.0139 23.9608L26.8604 27.8041C27.1216 28.0653 27.5429 28.0653 27.8041 27.8041C28.0653 27.5461 28.0653 27.1216 27.8041 26.8637ZM18.7429 24.1437C15.7616 24.1437 13.3388 21.7208 13.3388 18.7429C13.3388 15.7649 15.7616 13.3388 18.7429 13.3388C21.7208 13.3388 24.1469 15.7649 24.1469 18.7429C24.1469 21.7208 21.7208 24.1437 18.7429 24.1437Z" fill="white"/>
</svg>
