<svg width="24" height="24" viewBox="0 0 24 24" fill="none" xmlns="http://www.w3.org/2000/svg">
<path d="M12 23.5989C18.6274 23.5989 24 18.3161 24 11.7995C24 5.2828 18.6274 0 12 0C5.37258 0 0 5.2828 0 11.7995C0 18.3161 5.37258 23.5989 12 23.5989Z" fill="#D40030"/>
<path d="M19.4112 6.7238C17.7347 5.07534 15.0435 5.07534 13.367 6.7238L12.22 7.85169L11.0729 6.7238C9.39648 5.07534 6.7053 5.07534 5.02883 6.7238C3.35237 8.37225 3.35237 11.0185 5.02883 12.6669L12.22 19.7379L19.4112 12.6669C21.0876 11.0185 21.0876 8.37225 19.4112 6.7238Z" fill="white"/>
</svg>
