<svg width="25" height="29" viewBox="0 0 25 29" fill="none" xmlns="http://www.w3.org/2000/svg">
<path d="M12.3125 0C5.5825 0 0.3125 5.04 0.3125 11.46C0.3125 17.73 11.1725 27.93 11.6325 28.36L12.3125 29L12.9925 28.36C13.4525 27.93 24.3125 17.73 24.3125 11.46C24.3125 5.04 19.0425 0 12.3125 0ZM12.3125 26.25C8.9925 23.01 2.3125 15.64 2.3125 11.46C2.3125 6.07 6.6125 2 12.3125 2C18.0125 2 22.3125 6.07 22.3125 11.46C22.3125 15.64 15.6325 23.01 12.3125 26.25Z" fill="#009CDE"/>
<path d="M12.3125 6.81006C9.5525 6.81006 7.3125 9.05006 7.3125 11.8101C7.3125 14.5701 9.5525 16.8101 12.3125 16.8101C15.0725 16.8101 17.3125 14.5701 17.3125 11.8101C17.3125 9.05006 15.0725 6.81006 12.3125 6.81006ZM12.3125 14.8101C10.6625 14.8101 9.3125 13.4601 9.3125 11.8101C9.3125 10.1601 10.6625 8.81006 12.3125 8.81006C13.9625 8.81006 15.3125 10.1601 15.3125 11.8101C15.3125 13.4601 13.9625 14.8101 12.3125 14.8101Z" fill="#009CDE"/>
</svg>
