<svg width="120" height="31" viewBox="0 0 120 31" fill="none" xmlns="http://www.w3.org/2000/svg">
<g clip-path="url(#clip0_819:209)">
<path d="M4.98379 10.0813C2.23365 10.0813 0 12.3261 0 15.105V25.2202C0 27.9923 2.22694 30.2439 4.98379 30.2439H32.5187C35.2689 30.2439 37.5025 27.9991 37.5025 25.2202V5.02375C37.5025 2.25156 35.2689 0 32.5187 0H0V5.03727H30.8821C31.7742 5.03727 32.4986 5.7675 32.4986 6.66678V23.5704C32.4986 24.4696 31.7742 25.1999 30.8821 25.1999H6.61375C5.72163 25.1999 4.9972 24.4696 4.9972 23.5704V16.7481C4.9972 15.8488 5.72163 15.1186 6.61375 15.1186H27.5014V10.0813H4.98379Z" fill="white"/>
<path d="M101.514 17.2213C101.514 20.9807 98.9718 23.07 95.4972 23.07C92.0159 23.07 89.4804 20.9807 89.4804 17.2213C89.4804 13.462 92.0159 11.3727 95.4972 11.3727C98.9718 11.3659 101.514 13.462 101.514 17.2213ZM76.6822 22.7251H79.2982L79.969 21.2647C80.7806 22.5561 82.0886 23.0767 83.5576 23.0767C87.059 23.0767 88.3603 20.3316 88.3603 17.2213C88.3603 14.1246 87.059 11.3727 83.5576 11.3727C82.5112 11.3727 81.4178 12.0082 80.5525 12.9954V7.14678H74.7705V9.02646H75.8438C76.5212 9.02646 76.6822 9.37129 76.6822 10.0407V22.7251ZM63.6023 22.7251H66.2183L66.8958 21.2647C67.7074 22.5561 69.0154 23.0767 70.4843 23.0767C73.9857 23.0767 75.287 20.3316 75.287 17.2213C75.287 14.1246 73.9857 11.3727 70.4843 11.3727C69.438 11.3727 68.3446 12.0082 67.4793 12.9954V7.14678H61.6973V9.02646H62.7705C63.448 9.02646 63.609 9.37129 63.609 10.0407V22.7251H63.6023ZM52.6956 10.6357H52.7426L54.4195 15.6932H51.0388L52.6956 10.6357ZM51.2937 7.14001L47.4033 18.8846C46.9338 20.3181 46.6118 20.6494 45.7935 20.6494H45.002V22.7184H51.8572V20.6494H51.1864C50.5492 20.6494 49.7309 20.575 49.7309 20.1963C49.7309 19.865 49.8248 19.5202 50.0797 18.7021L50.3614 17.7622H55.1171L55.6068 19.4526C55.7007 19.8042 55.7208 20.0679 55.7208 20.3045C55.7208 20.5615 55.1372 20.6561 54.4396 20.6561H53.742V22.7251H62.2473V20.6561H61.4558C60.6442 20.6561 60.3155 20.3248 59.8527 18.8914L55.9556 7.14678H51.2937V7.14001ZM71.1618 17.2213C71.1618 19.6216 70.6319 21.055 69.3172 21.055C68.0092 21.055 67.4793 19.6216 67.4793 17.2213C67.4793 14.8278 68.0159 13.3943 69.3172 13.3943C70.6319 13.3943 71.1618 14.821 71.1618 17.2213ZM95.4972 13.2524C94.102 13.2524 93.6123 14.4491 93.6123 17.2213C93.6123 19.9935 94.102 21.1903 95.4972 21.1903C96.8924 21.1903 97.382 19.9935 97.382 17.2213C97.382 14.4491 96.8991 13.2524 95.4972 13.2524ZM118.136 17.4106V19.243C118.136 20.3248 117.907 20.9604 117.015 20.9604C116.479 20.9604 116.224 20.5615 116.224 20.0611V13.5972H119.088V11.7175H116.224V7.35638H113.91C113.722 9.30367 113.118 11.7175 110.784 11.7175H107.148V7.35638H104.841C104.653 9.30367 104.043 11.7175 101.715 11.7175V13.5972H103.278V19.4932C103.278 21.8935 104.606 23.0632 107.001 23.0632C109.805 23.0632 110.918 21.7988 110.918 19.4932V17.4039H109.06V19.2362C109.06 20.3181 108.825 20.9536 107.94 20.9536C107.397 20.9536 107.142 20.5547 107.142 20.0544V13.5904H112.347V19.4864C112.347 21.8867 113.668 23.0564 116.07 23.0564C118.867 23.0564 119.987 21.792 119.987 19.4864V17.3971H118.136V17.4106ZM84.2417 17.2213C84.2417 19.6216 83.7118 21.055 82.3971 21.055C81.0959 21.055 80.5592 19.6216 80.5592 17.2213C80.5592 14.8278 81.0959 13.3943 82.3971 13.3943C83.7051 13.3943 84.2417 14.821 84.2417 17.2213Z" fill="white"/>
</g>
<defs>
<clipPath id="clip0_819:209">
<rect width="120" height="30.2439" fill="white"/>
</clipPath>
</defs>
</svg>
