<svg width="211" height="36" viewBox="0 0 211 36" fill="none" xmlns="http://www.w3.org/2000/svg">
<path opacity="0.6" d="M154.929 33.6656V2.33435L153.282 2.33435V33.6656H154.929Z" fill="black"/>
<path d="M5.97688 12.0002C2.67537 12.0002 0 14.675 0 17.9771V30.0215C0 33.3246 2.67537 36 5.97688 36H39.0208C42.3228 36 44.9993 33.3246 44.9993 30.0215V5.97688C44.9999 2.67702 42.3228 0 39.0213 0H0V6.00009H37.0611C38.1327 6.00009 39.0003 6.8672 39.0003 7.93767V28.0629C39.0003 29.1317 38.1332 30.0021 37.0611 30.0021H7.93767C6.86775 30.0021 6.00009 29.1317 6.00009 28.0629V19.9373C6.00009 18.8674 6.8672 17.9997 7.93767 17.9997H32.9986V12.0002H5.97688Z" fill="#1193D3"/>
<path d="M121.813 20.4983C121.813 24.9753 118.761 27.4633 114.595 27.4633C110.421 27.4633 107.376 24.9753 107.376 20.4983C107.376 16.0229 110.42 13.5333 114.595 13.5333C118.761 13.5333 121.813 16.0229 121.813 20.4983ZM92.019 27.0505H95.1574L95.9654 25.3096C96.9397 26.8476 98.5081 27.4638 100.269 27.4638C104.467 27.4638 106.031 24.1927 106.031 20.4972C106.031 16.8127 104.467 13.5338 100.269 13.5338C99.016 13.5338 97.6985 14.2882 96.6651 15.4637V8.50141H89.7277V10.7391H91.0126C91.8233 10.7391 92.019 11.1519 92.019 11.9433V27.0505ZM76.3205 27.0505H79.4589L80.2686 25.3096C81.2429 26.8476 82.8113 27.4638 84.5737 27.4638C88.7716 27.4638 90.3345 24.1927 90.3345 20.4972C90.3345 16.8127 88.7721 13.5338 84.5737 13.5338C83.3208 13.5338 82.0033 14.2882 80.9688 15.4637V8.50141H74.0297V10.7391H75.3163C76.1259 10.7391 76.321 11.1519 76.321 11.9433V27.0505H76.3205ZM63.2321 12.6634H63.2885L65.299 18.6878H61.2398L63.2321 12.6634ZM61.5537 8.50141L56.8827 22.4845C56.3157 24.1916 55.93 24.5868 54.9512 24.5868H53.999V27.0499H62.223V24.5868H61.4183C60.6579 24.5868 59.6747 24.5017 59.6747 24.0485C59.6747 23.6567 59.7891 23.2422 60.0942 22.2662L60.434 21.146H66.1412L66.7265 23.1549C66.8376 23.5754 66.8652 23.8832 66.8652 24.1701C66.8652 24.4735 66.1683 24.5862 65.3272 24.5862H64.4905V27.0494H74.6995V24.5862H73.7484C72.7758 24.5862 72.3828 24.1916 71.8274 22.4839L67.152 8.50085H61.5537V8.50141ZM85.3894 20.4972C85.3894 23.3555 84.7522 25.0598 83.1777 25.0598C81.612 25.0598 80.9688 23.3555 80.9688 20.4972C80.9688 17.6466 81.612 15.9423 83.1777 15.9423C84.7522 15.9423 85.3894 17.6461 85.3894 20.4972ZM114.595 15.7726C112.918 15.7726 112.332 17.1979 112.332 20.4983C112.332 23.797 112.918 25.2256 114.595 25.2256C116.272 25.2256 116.857 23.797 116.857 20.4983C116.857 17.1984 116.272 15.7726 114.595 15.7726ZM141.758 20.7243V22.9056C141.758 24.1922 141.48 24.9526 140.416 24.9526C139.775 24.9526 139.47 24.474 139.47 23.8838V16.192H142.904V13.9527H139.47V8.75784H136.696C136.468 11.0751 135.743 13.9527 132.945 13.9527H128.583V8.75784H125.816C125.591 11.0751 124.862 13.9527 122.069 13.9527V16.192H123.941V23.2118C123.941 26.0668 125.535 27.4633 128.41 27.4633C131.775 27.4633 133.11 25.9573 133.11 23.2118V20.7243H130.88V22.9056C130.88 24.1922 130.598 24.9526 129.539 24.9526C128.889 24.9526 128.583 24.474 128.583 23.8838V16.192H134.828V23.2118C134.828 26.0668 136.416 27.4633 139.299 27.4633C142.653 27.4633 143.999 25.9573 143.999 23.2118V20.7243H141.758ZM101.084 20.4972C101.084 23.3555 100.447 25.0598 98.8707 25.0598C97.3067 25.0598 96.6651 23.3555 96.6651 20.4972C96.6651 17.6466 97.3067 15.9423 98.8707 15.9423C100.447 15.9423 101.084 17.6461 101.084 20.4972Z" fill="black"/>
<g opacity="0.6">
<path opacity="0.6" d="M176.192 15.0137C176.192 15.9046 175.998 16.7026 175.612 17.4078C175.226 18.113 174.692 18.706 174.012 19.1846C173.332 19.6632 172.529 20.029 171.606 20.2805C170.681 20.533 169.682 20.659 168.606 20.659H168.178V26.3292H164.045V9.54529H168.884C169.942 9.54529 170.921 9.65526 171.82 9.87356C172.718 10.0919 173.491 10.424 174.138 10.8689C174.785 11.3143 175.289 11.8813 175.65 12.5699C176.011 13.258 176.192 14.0731 176.192 15.0137ZM172.21 15.0392C172.21 13.4934 171.109 12.7208 168.908 12.7208H168.178V17.4841H168.858C169.95 17.4841 170.782 17.2652 171.353 16.8281C171.924 16.3915 172.21 15.7952 172.21 15.0392Z" fill="black"/>
<path opacity="0.6" d="M190.782 14.8629C190.782 15.9886 190.468 16.9712 189.838 17.8112C189.207 18.6518 188.329 19.2901 187.204 19.7267L192.722 26.3292H187.632L183.02 20.5076H182.264V26.3292H178.131V9.54529H183.474C184.515 9.54529 185.481 9.65526 186.371 9.87356C187.262 10.0919 188.035 10.4196 188.69 10.8556C189.345 11.2928 189.857 11.8432 190.227 12.5064C190.597 13.1701 190.782 13.9554 190.782 14.8629ZM186.8 14.938C186.8 14.182 186.506 13.6238 185.918 13.2624C185.33 12.9015 184.507 12.7208 183.448 12.7208H182.264V17.4332H183.272C184.38 17.4332 185.246 17.2149 185.867 16.7778C186.489 16.3406 186.8 15.7278 186.8 14.938Z" fill="black"/>
<path opacity="0.6" d="M210.389 17.9373C210.389 19.1299 210.195 20.2518 209.81 21.3018C209.423 22.3518 208.865 23.2714 208.134 24.0606C207.403 24.8509 206.509 25.4765 205.45 25.938C204.392 26.4 203.182 26.6315 201.821 26.6315C200.461 26.6315 199.247 26.4 198.18 25.938C197.113 25.4765 196.214 24.8504 195.483 24.0606C194.753 23.2714 194.199 22.3518 193.82 21.3018C193.442 20.2518 193.253 19.1299 193.253 17.9373C193.253 16.7447 193.442 15.6228 193.82 14.5728C194.199 13.5233 194.753 12.6031 195.483 11.8134C196.214 11.0237 197.113 10.3981 198.18 9.93606C199.247 9.47405 200.461 9.24304 201.821 9.24304C203.182 9.24304 204.392 9.47405 205.45 9.93606C206.509 10.3986 207.403 11.0242 208.134 11.8134C208.865 12.6026 209.423 13.5233 209.81 14.5728C210.195 15.6234 210.389 16.7447 210.389 17.9373ZM201.821 23.3554C202.543 23.3554 203.182 23.2212 203.737 22.9526C204.29 22.684 204.757 22.3098 205.135 21.8312C205.513 21.3526 205.794 20.7818 205.979 20.1175C206.164 19.4543 206.256 18.7276 206.256 17.9378C206.256 17.1481 206.164 16.4219 205.979 15.7576C205.794 15.095 205.513 14.523 205.135 14.0444C204.756 13.5653 204.29 13.1917 203.737 12.9231C203.182 12.6545 202.543 12.5197 201.821 12.5197C201.081 12.5197 200.439 12.6545 199.893 12.9231C199.347 13.1917 198.886 13.5653 198.507 14.0444C198.129 14.5225 197.848 15.0945 197.663 15.7576C197.478 16.4219 197.386 17.1487 197.386 17.9378C197.386 18.7281 197.478 19.4543 197.663 20.1175C197.848 20.7812 198.13 21.3521 198.507 21.8312C198.886 22.3098 199.347 22.684 199.893 22.9526C200.439 23.2212 201.081 23.3554 201.821 23.3554Z" fill="black"/>
</g>
</svg>
