<svg width="58" height="32" viewBox="0 0 58 32" fill="none" xmlns="http://www.w3.org/2000/svg">
<path d="M1.64648 31.6657L1.64648 0.334473L-0.000405669 0.334473L-0.000405669 31.6657H1.64648Z" fill="#1193D3"/>
<path d="M22.9109 13.0139C22.9109 13.9047 22.7169 14.7027 22.3311 15.4079C21.9443 16.1131 21.411 16.7061 20.7307 17.1847C20.0509 17.6633 19.2474 18.0291 18.3244 18.2806C17.3999 18.5331 16.4007 18.6592 15.3252 18.6592H14.8969V24.3293H10.7637V7.54541H15.6026C16.661 7.54541 17.6397 7.65539 18.5383 7.87368C19.4369 8.09198 20.2095 8.42412 20.8567 8.869C21.5033 9.31443 22.0073 9.88145 22.3687 10.5701C22.7296 11.2581 22.9109 12.0733 22.9109 13.0139ZM18.929 13.0393C18.929 11.4935 17.8282 10.7209 15.627 10.7209H14.8964V15.4842H15.5772C16.6687 15.4842 17.5004 15.2653 18.0719 14.8282C18.6428 14.3916 18.929 13.7953 18.929 13.0393Z" fill="#1193D3"/>
<path d="M37.5008 12.863C37.5008 13.9887 37.1864 14.9713 36.5563 15.8114C35.9258 16.6519 35.0482 17.2902 33.9224 17.7268L39.4412 24.3293H34.3507L29.7389 18.5077H28.9829V24.3293H24.8496V7.54541H30.1926C31.2338 7.54541 32.1998 7.65539 33.0901 7.87368C33.9805 8.09198 34.7536 8.4197 35.4085 8.85574C36.0639 9.29288 36.5757 9.84332 36.946 10.5065C37.3162 11.1702 37.5008 11.9555 37.5008 12.863ZM33.519 12.9381C33.519 12.1821 33.225 11.6239 32.6364 11.2625C32.0484 10.9016 31.2255 10.7209 30.1666 10.7209H28.9823V15.4333H29.9903C31.0989 15.4333 31.9644 15.2151 32.5861 14.7779C33.2078 14.3408 33.519 13.7279 33.519 12.9381Z" fill="#1193D3"/>
<path d="M57.1082 15.9374C57.1082 17.13 56.9142 18.2519 56.5285 19.3019C56.1416 20.352 55.5834 21.2716 54.8528 22.0607C54.1222 22.851 53.2275 23.4766 52.1686 23.9381C51.1108 24.4001 49.9005 24.6317 48.5399 24.6317C47.1793 24.6317 45.9657 24.4001 44.8991 23.9381C43.8314 23.4766 42.9328 22.8505 42.2022 22.0607C41.4716 21.2716 40.9173 20.352 40.5387 19.3019C40.1607 18.2519 39.9717 17.13 39.9717 15.9374C39.9717 14.7448 40.1612 13.6229 40.5387 12.5729C40.9173 11.5234 41.4716 10.6033 42.2022 9.81353C42.9328 9.02379 43.8314 8.3982 44.8991 7.93618C45.9657 7.47417 47.1793 7.24316 48.5399 7.24316C49.9011 7.24316 51.1108 7.47417 52.1686 7.93618C53.2275 8.39875 54.1222 9.02435 54.8528 9.81353C55.5834 10.6027 56.1416 11.5234 56.5285 12.5729C56.9142 13.6235 57.1082 14.7448 57.1082 15.9374ZM48.5394 21.3556C49.2622 21.3556 49.9005 21.2213 50.4554 20.9527C51.0092 20.6841 51.4756 20.31 51.8536 19.8314C52.2316 19.3528 52.5124 18.7819 52.6981 18.1176C52.8826 17.4544 52.9749 16.7277 52.9749 15.938C52.9749 15.1482 52.8826 14.4221 52.6981 13.7578C52.5124 13.0951 52.2316 12.5232 51.8536 12.0446C51.475 11.5654 51.0092 11.1918 50.4554 10.9232C49.9005 10.6547 49.2622 10.5198 48.5394 10.5198C47.7999 10.5198 47.1578 10.6547 46.6117 10.9232C46.0657 11.1918 45.6043 11.5654 45.2257 12.0446C44.8477 12.5226 44.5664 13.0946 44.3818 13.7578C44.1967 14.4221 44.1044 15.1488 44.1044 15.938C44.1044 16.7283 44.1967 17.4544 44.3818 18.1176C44.5664 18.7813 44.8483 19.3522 45.2257 19.8314C45.6043 20.31 46.0657 20.6841 46.6117 20.9527C47.1578 21.2213 47.7999 21.3556 48.5394 21.3556Z" fill="#1193D3"/>
</svg>
