<svg width="45" height="36" viewBox="0 0 45 36" fill="none" xmlns="http://www.w3.org/2000/svg">
<path d="M5.97688 12.0002C2.67537 12.0002 0 14.675 0 17.9771V30.0215C0 33.3246 2.67537 36 5.97688 36H39.0208C42.3228 36 44.9993 33.3246 44.9993 30.0215V5.97688C44.9999 2.67702 42.3228 0 39.0213 0H0V6.00009H37.0611C38.1327 6.00009 39.0003 6.8672 39.0003 7.93767V28.0629C39.0003 29.1317 38.1332 30.0021 37.0611 30.0021H7.93767C6.86775 30.0021 6.00009 29.1317 6.00009 28.0629V19.9373C6.00009 18.8674 6.8672 17.9997 7.93767 17.9997H32.9986V12.0002H5.97688Z" fill="#1193D3"/>
</svg>
