<svg width="90" height="20" viewBox="0 0 90 20" fill="none" xmlns="http://www.w3.org/2000/svg">
<path d="M67.8127 12.4984C67.8127 16.9754 64.761 19.4634 60.5946 19.4634C56.421 19.4634 53.3765 16.9754 53.3765 12.4984C53.3765 8.02306 56.4205 5.53338 60.5946 5.53338C64.761 5.53338 67.8127 8.02306 67.8127 12.4984ZM38.019 19.0506H41.1574L41.9654 17.3097C42.9397 18.8478 44.5081 19.464 46.2689 19.464C50.4668 19.464 52.0313 16.1928 52.0313 12.4973C52.0313 8.81279 50.4673 5.53394 46.2689 5.53394C45.016 5.53394 43.6985 6.2883 42.6651 7.46378V0.501529H35.7277V2.7392H37.0126C37.8233 2.7392 38.019 3.15203 38.019 3.94342V19.0506ZM22.3205 19.0506H25.4589L26.2686 17.3097C27.2429 18.8478 28.8113 19.464 30.5737 19.464C34.7716 19.464 36.3345 16.1928 36.3345 12.4973C36.3345 8.81279 34.7721 5.53394 30.5737 5.53394C29.3208 5.53394 28.0033 6.2883 26.9688 7.46378V0.501529H20.0297V2.7392H21.3163C22.1259 2.7392 22.321 3.15203 22.321 3.94342V19.0506H22.3205ZM9.2321 4.66352H9.28847L11.299 10.6879H7.23981L9.2321 4.66352ZM7.55371 0.501529L2.88274 14.4846C2.31572 16.1917 1.92997 16.5869 0.951235 16.5869H-0.000976562V19.05H8.22297V16.5869H7.41832C6.65787 16.5869 5.67471 16.5018 5.67471 16.0486C5.67471 15.6568 5.78911 15.2423 6.09417 14.2663L6.43405 13.1461H12.1412L12.7265 15.155C12.8376 15.5755 12.8652 15.8834 12.8652 16.1702C12.8652 16.4736 12.1683 16.5863 11.3272 16.5863H10.4905V19.0495H20.6995V16.5863H19.7484C18.7758 16.5863 18.3828 16.1917 17.8274 14.4841L13.152 0.500977H7.55371V0.501529ZM31.3894 12.4973C31.3894 15.3556 30.7522 17.06 29.1777 17.06C27.612 17.06 26.9688 15.3556 26.9688 12.4973C26.9688 9.64674 27.612 7.94237 29.1777 7.94237C30.7522 7.94237 31.3894 9.64619 31.3894 12.4973ZM60.5951 7.77271C58.9184 7.77271 58.3315 9.19799 58.3315 12.4984C58.3315 15.7972 58.9184 17.2257 60.5951 17.2257C62.2719 17.2257 62.8571 15.7972 62.8571 12.4984C62.8571 9.19854 62.2719 7.77271 60.5951 7.77271ZM87.7578 12.7244V14.9057C87.7578 16.1923 87.4803 16.9527 86.4165 16.9527C85.7749 16.9527 85.4698 16.4741 85.4698 15.8839V8.19217H88.904V5.95284H85.4698V0.757958H82.6955C82.4684 3.07521 81.7428 5.95284 78.9453 5.95284H74.5827V0.757958H71.8161C71.5906 3.07521 70.8617 5.95284 68.0692 5.95284V8.19217H69.941V15.2119C69.941 18.0669 71.5354 19.4634 74.4102 19.4634C77.7747 19.4634 79.1099 17.9575 79.1099 15.2119V12.7244H76.88V14.9057C76.88 16.1923 76.5982 16.9527 75.5387 16.9527C74.8894 16.9527 74.5827 16.4741 74.5827 15.8839V8.19217H80.8281V15.2119C80.8281 18.0669 82.4164 19.4634 85.299 19.4634C88.6525 19.4634 89.9988 17.9575 89.9988 15.2119V12.7244H87.7578ZM47.084 12.4973C47.084 15.3556 46.4468 17.06 44.8707 17.06C43.3067 17.06 42.6651 15.3556 42.6651 12.4973C42.6651 9.64674 43.3067 7.94237 44.8707 7.94237C46.4468 7.94237 47.084 9.64619 47.084 12.4973Z" fill="black"/>
</svg>
