<svg width="17" height="20" viewBox="0 0 17 20" fill="none" xmlns="http://www.w3.org/2000/svg">
<path d="M12.1563 0V2H11.1563V5.243C11.1562 6.40042 11.4073 7.54406 11.8923 8.595L16.1743 17.871C16.2798 18.0996 16.3262 18.351 16.309 18.6022C16.2919 18.8534 16.2117 19.0963 16.0761 19.3083C15.9404 19.5204 15.7535 19.695 15.5326 19.8158C15.3118 19.9367 15.064 20 14.8123 20H1.50025C1.24847 20 1.00074 19.9367 0.779874 19.8158C0.559009 19.695 0.372124 19.5204 0.236442 19.3083C0.100761 19.0963 0.0206481 18.8534 0.00348821 18.6022C-0.0136716 18.351 0.0326735 18.0996 0.138252 17.871L4.42025 8.595C4.90518 7.54406 5.15629 6.40042 5.15625 5.243V2H4.15625V0H12.1563ZM9.54425 8.001H6.76825C6.66395 8.36479 6.53908 8.72236 6.39425 9.072L6.23625 9.433L2.28125 18H14.0303L10.0763 9.433C9.86267 8.96993 9.68481 8.4912 9.54425 8.001ZM7.15625 5.243C7.15618 5.49594 7.1465 5.74879 7.12725 6.001H9.18525C9.17604 5.8798 9.16904 5.75845 9.16425 5.637L9.15625 5.243V2H7.15625V5.243Z" fill="#009CDE"/>
</svg>
