<svg width="20" height="18" viewBox="0 0 20 18" fill="none" xmlns="http://www.w3.org/2000/svg">
<path d="M0 0.993C0.00183004 0.730378 0.1069 0.479017 0.292513 0.293218C0.478126 0.107418 0.72938 0.00209465 0.992 0H19.008C19.556 0 20 0.445 20 0.993V17.007C19.9982 17.2696 19.8931 17.521 19.7075 17.7068C19.5219 17.8926 19.2706 17.9979 19.008 18H0.992C0.728813 17.9997 0.476497 17.895 0.290489 17.7088C0.104482 17.5226 -1.33455e-07 17.2702 0 17.007V0.993ZM2 2V16H18V2H2ZM8.622 5.415L13.501 8.667C13.5559 8.70351 13.6009 8.75302 13.632 8.81111C13.6631 8.86921 13.6794 8.93409 13.6794 9C13.6794 9.06591 13.6631 9.13079 13.632 9.18889C13.6009 9.24698 13.5559 9.29649 13.501 9.333L8.621 12.585C8.56083 12.6249 8.49098 12.6477 8.41887 12.6512C8.34676 12.6546 8.27507 12.6384 8.21141 12.6043C8.14774 12.5703 8.09448 12.5197 8.05726 12.4578C8.02004 12.396 8.00025 12.3252 8 12.253V5.747C8.00013 5.67465 8.01989 5.60369 8.05716 5.54168C8.09443 5.47967 8.14782 5.42893 8.21165 5.39486C8.27547 5.36079 8.34734 5.34467 8.41961 5.34822C8.49187 5.35177 8.56182 5.37485 8.622 5.415Z" fill="#009CDE"/>
</svg>
