<svg width="61" height="61" viewBox="0 0 61 61" fill="none" xmlns="http://www.w3.org/2000/svg">
<path d="M52.7947 40.5098C53.5727 39.4925 54.0361 38.2224 54.0361 36.8458V34.7354C54.0361 31.4022 51.3244 28.6906 47.9913 28.6906C44.6582 28.6906 41.9464 31.4023 41.9464 34.7354V36.8458C41.9464 38.2216 42.4093 39.4908 43.1863 40.5078H36.4238C38.0576 38.945 39.0781 36.7464 39.0781 34.3125V28.826C39.0781 24.096 35.23 20.2479 30.5 20.2479C25.77 20.2479 21.9219 24.096 21.9219 28.826V34.3125C21.9219 36.7464 22.9424 38.945 24.5761 40.5078H17.8135C18.5906 39.4907 19.0534 38.2215 19.0534 36.8458V34.7354C19.0534 31.4022 16.3417 28.6906 13.0086 28.6906C9.67553 28.6906 6.96377 31.4022 6.96377 34.7354V36.8458C6.96377 38.2226 7.42735 39.4925 8.20522 40.5098C3.67358 40.5534 0 44.2518 0 48.7935V53.3054C0 53.9633 0.533512 54.4968 1.19141 54.4968H10.7227V59.8086C10.7227 60.4665 11.2562 61 11.9141 61H15.2501C15.908 61 16.4415 60.4665 16.4415 59.8086C16.4415 59.1507 15.908 58.6172 15.2501 58.6172H13.1055V52.8126C13.1055 47.6055 17.1384 43.3255 22.2443 42.9243L28.7196 58.6172H25.9721C25.3142 58.6172 24.7807 59.1507 24.7807 59.8086C24.7807 60.4665 25.3142 61 25.9721 61H49.0859C49.7438 61 50.2773 60.4665 50.2773 59.8086V54.4968H59.8086C60.4665 54.4968 61 53.9633 61 53.3054V48.7935C61 44.2518 57.3264 40.5534 52.7947 40.5098ZM44.3293 36.8458V34.7354C44.3293 32.7162 45.9721 31.0734 47.9913 31.0734C50.0105 31.0734 51.6533 32.7162 51.6533 34.7354V36.8458C51.6533 38.865 50.0105 40.5078 47.9913 40.5078C45.9721 40.5078 44.3293 38.865 44.3293 36.8458ZM30.5 22.6307C33.9161 22.6307 36.6953 25.4099 36.6953 28.826V28.838H36.6902C34.7184 28.838 32.8036 28.2668 31.1524 27.1864C30.7562 26.9269 30.244 26.9269 29.8477 27.1864C28.1965 28.2668 26.2816 28.838 24.3099 28.838H24.3047V28.826C24.3047 25.4099 27.0839 22.6307 30.5 22.6307ZM24.3047 34.3125V31.2208H24.3098C26.4908 31.2208 28.6152 30.6555 30.5 29.5795C32.3848 30.6555 34.5092 31.2208 36.6902 31.2208H36.6953V34.3125C36.6953 37.7286 33.9161 40.5078 30.5 40.5078C27.0839 40.5078 24.3047 37.7286 24.3047 34.3125ZM9.34658 34.7354C9.34658 32.7162 10.9894 31.0734 13.0086 31.0734C15.0278 31.0734 16.6706 32.7162 16.6706 34.7354V36.8458C16.6706 38.865 15.0278 40.5078 13.0086 40.5078C10.9894 40.5078 9.34658 38.865 9.34658 36.8458V34.7354ZM10.7429 52.114H2.38281V48.7935C2.38281 45.5387 5.03095 42.8906 8.28575 42.8906H15.759C12.8834 45.0028 10.9557 48.3328 10.7429 52.114ZM24.8259 42.8906H29.3086V45.75C29.3086 46.4079 29.8421 46.9414 30.5 46.9414C31.1579 46.9414 31.6914 46.4079 31.6914 45.75V42.8906H36.1741H36.1919L30.5 56.6851L24.8081 42.8906H24.8259ZM47.8945 58.6172H32.2804L38.7557 42.9244C43.8616 43.3255 47.8945 47.6055 47.8945 52.8126V58.6172ZM58.6172 52.114H50.2571C50.0443 48.3328 48.1166 45.0028 45.241 42.8906H52.7142C55.9691 42.8906 58.6172 45.5387 58.6172 48.7935V52.114Z" fill="#009CDE"/>
<path d="M22.3156 9.17919L25.1595 11.236L24.0717 14.5591C23.7497 15.5431 24.0828 16.5721 24.9205 17.1807C25.758 17.7892 26.8397 17.7882 27.6759 17.1777L30.5002 15.1162L33.3244 17.1776C33.7433 17.4833 34.2236 17.6363 34.7042 17.6363C35.1829 17.6363 35.6618 17.4844 36.0799 17.1807C36.9176 16.5722 37.2507 15.5431 36.9286 14.559L35.8409 11.236L38.6848 9.17919C39.5228 8.57312 39.8585 7.54565 39.54 6.56167C39.2214 5.57781 38.3474 4.94207 37.3133 4.94207H33.8011L32.7274 1.62055C32.4089 0.636092 31.5349 0 30.5002 0C29.4654 0 28.5914 0.636092 28.2731 1.62067L27.1994 4.94219H23.6871C22.653 4.94219 21.779 5.57793 21.4605 6.56179C21.1418 7.54565 21.4775 8.57312 22.3156 9.17919ZM28.0664 7.32488C28.5832 7.32488 29.0411 6.99165 29.2001 6.49995L30.5004 2.47836L31.8002 6.49995C31.9593 6.99165 32.4171 7.32488 32.934 7.32488L37.1822 7.32524L33.7398 9.81468C33.3201 10.1184 33.1446 10.6584 33.3057 11.1508L34.6227 15.1752L31.2025 12.6788C30.9933 12.5261 30.7467 12.4497 30.5 12.4497C30.2534 12.4497 30.0068 12.5261 29.7976 12.6788L26.3771 15.1751L27.6944 11.1508C27.8556 10.6584 27.6801 10.1184 27.2603 9.81468L23.818 7.325H28.0664V7.32488Z" fill="#009CDE"/>
<path d="M20.6113 58.6172C20.298 58.6172 19.9906 58.7445 19.769 58.9663C19.5474 59.188 19.4199 59.4953 19.4199 59.8086C19.4199 60.1219 19.5473 60.4293 19.769 60.6508C19.9906 60.8724 20.298 61 20.6113 61C20.9247 61 21.2321 60.8725 21.4535 60.6508C21.6753 60.4293 21.8027 60.1219 21.8027 59.8086C21.8027 59.4953 21.6753 59.1879 21.4535 58.9663C21.2321 58.7445 20.9247 58.6172 20.6113 58.6172Z" fill="#009CDE"/>
</svg>
