<svg width="65" height="65" viewBox="0 0 65 65" fill="none" xmlns="http://www.w3.org/2000/svg">
<path d="M20.3125 30.4688C21.4343 30.4688 22.3438 29.5593 22.3438 28.4375C22.3438 27.3157 21.4343 26.4062 20.3125 26.4062C19.1907 26.4062 18.2812 27.3157 18.2812 28.4375C18.2812 29.5593 19.1907 30.4688 20.3125 30.4688Z" fill="#009CDE"/>
<path d="M32.5 30.4688C33.6218 30.4688 34.5312 29.5593 34.5312 28.4375C34.5312 27.3157 33.6218 26.4062 32.5 26.4062C31.3782 26.4062 30.4688 27.3157 30.4688 28.4375C30.4688 29.5593 31.3782 30.4688 32.5 30.4688Z" fill="#009CDE"/>
<path d="M26.4061 37.5781C24.5647 37.5781 22.8443 36.726 21.5615 35.1792L23.1246 33.8833C24.0153 34.9558 25.1802 35.5469 26.4061 35.5469C27.6319 35.5469 28.7968 34.9558 29.6865 33.8833L31.2496 35.1792C29.9679 36.726 28.2474 37.5781 26.4061 37.5781Z" fill="#009CDE"/>
<path d="M61.9531 29.4531C59.15 29.4531 56.875 31.7281 56.875 34.5312V35.5469H52.8125C51.1367 35.5469 49.7656 36.918 49.7656 38.5938C49.7656 39.3758 50.0602 40.0867 50.5477 40.625C50.0602 41.1633 49.7656 41.8742 49.7656 42.6562C49.7656 43.4383 50.0602 44.1492 50.5477 44.6875C50.0602 45.2258 49.7656 45.9367 49.7656 46.7188C49.7656 47.5008 50.0602 48.2117 50.5477 48.75C50.1109 49.2375 49.8266 49.857 49.7758 50.5375C49.3492 49.207 48.7906 47.9578 48.1102 46.7289C46.5359 43.8953 45.7031 40.6758 45.7031 37.4258V22.3438C45.7031 11.7 37.05 3.04688 26.4062 3.04688C15.7625 3.04688 7.10938 11.7 7.10938 22.3438V37.4258C7.10938 40.6758 6.27656 43.8953 4.70234 46.7289C2.95547 49.8773 2.03125 53.432 2.03125 57.0273V61.9531C2.03125 62.5117 2.48828 62.9688 3.04688 62.9688H49.7656C50.3242 62.9688 50.7812 62.5117 50.7812 61.9531V57.0273C50.7812 55.5039 50.6086 53.9805 50.2938 52.4977C50.8422 53.3 51.7664 53.8281 52.8125 53.8281H53.8281V61.9531C53.8281 62.5117 54.2852 62.9688 54.8438 62.9688H61.9531C62.5117 62.9688 62.9688 62.5117 62.9688 61.9531V30.4688C62.9688 29.9102 62.5117 29.4531 61.9531 29.4531ZM46.343 47.7242C47.4703 49.7453 48.2117 51.9695 48.5469 54.2648C47.3281 52.8633 45.6625 51.8273 43.7328 51.3703L33.5156 48.9633V44.9516C38.0859 42.5344 41.2852 37.8523 41.6102 32.4086C42.3719 32.2563 43.0727 31.9313 43.6719 31.4844V37.4258C43.6719 41.0211 44.5961 44.5758 46.343 47.7242ZM30.1133 16.3922C32.3883 21.907 37.5375 23.6844 39.6094 24.182V31.4844C39.6094 38.7664 33.6883 44.6875 26.4062 44.6875C19.1242 44.6875 13.2031 38.7664 13.2031 31.4844V24.3344C16.1281 24.1312 24.6391 22.9937 30.1133 16.3922ZM13.2031 22.2828C13.2336 15.0312 19.1445 9.14062 26.4062 9.14062C33.607 9.14062 39.4773 14.9297 39.5992 22.1C37.4359 21.5109 32.8656 19.6117 31.4539 13.975C31.3523 13.5789 31.0375 13.2844 30.6414 13.2133C30.2453 13.1523 29.8492 13.325 29.6258 13.6602C24.9031 20.7289 16.1688 22.0492 13.2031 22.2828ZM41.6406 30.2859V24.5578C42.8188 24.9742 43.6719 26.1016 43.6719 27.4219C43.6719 28.7422 42.8188 29.8695 41.6406 30.2859ZM9.14062 22.3438C9.14062 12.8273 16.8898 5.07812 26.4062 5.07812C35.9227 5.07812 43.6719 12.8273 43.6719 22.3438V23.3594C43.0828 22.9125 42.3922 22.5977 41.6406 22.4453V22.3438C41.6406 13.9445 34.8055 7.10938 26.4062 7.10938C18.007 7.10938 11.1719 13.9445 11.1719 22.3438V22.4453C10.4203 22.5977 9.72969 22.9125 9.14062 23.3594V22.3438ZM11.1719 24.5578V30.2859C9.99375 29.8695 9.14062 28.7422 9.14062 27.4219C9.14062 26.1016 9.99375 24.9742 11.1719 24.5578ZM6.46953 47.7242C8.21641 44.5758 9.14062 41.0211 9.14062 37.4258V31.4844C9.73984 31.9313 10.4406 32.2563 11.2023 32.4086C11.5273 37.8523 14.7266 42.5344 19.2969 44.9516V48.9633L9.07969 51.3703C7.15 51.8273 5.48437 52.8633 4.26562 54.2648C4.60078 51.9695 5.34219 49.7453 6.46953 47.7242ZM4.0625 60.9375V60.2672C4.0625 56.9461 6.31719 54.1023 9.54687 53.3406L11.7711 52.8227L14.0766 55.118L13.2539 57.5656C13.0914 58.0633 13.325 58.6016 13.8023 58.8148L18.5758 60.9375H4.0625ZM15.4781 57.3422L16.1992 55.1688C16.3211 54.8031 16.2195 54.3969 15.9555 54.1227L14.0969 52.2641L19.5711 50.9844L21.8664 60.1758L15.4781 57.3422ZM28.6609 60.9375H24.1516L22.9023 55.9508C23.9586 56.5602 25.157 56.875 26.4062 56.875C27.6555 56.875 28.8641 56.55 29.9102 55.9406L28.6609 60.9375ZM26.4062 54.8438C25.0453 54.8438 23.7758 54.3156 22.8109 53.3406C22.4961 53.0359 22.2117 52.6703 21.9883 52.2742L21.9781 52.2641L21.3281 49.6437V45.8453C22.9125 46.4141 24.6187 46.7188 26.4062 46.7188C28.1938 46.7188 29.9 46.4141 31.4844 45.8453V49.6437L30.8344 52.2437C29.9406 53.8586 28.2445 54.8438 26.4062 54.8438ZM33.2414 50.9844L38.7156 52.2641L36.857 54.1227C36.593 54.3969 36.4914 54.8031 36.6133 55.1688L37.3344 57.3422L30.9461 60.1758L33.2414 50.9844ZM48.75 60.9375H34.2367L39.0102 58.8148C39.4875 58.6016 39.7211 58.0633 39.5586 57.5656L38.7359 55.118L41.0414 52.8227L43.2656 53.3406C46.4953 54.1023 48.75 56.9461 48.75 60.2672V60.9375ZM60.9375 60.9375H55.8594V52.8125C55.8594 52.2539 55.4023 51.7969 54.8438 51.7969H52.8125C52.2539 51.7969 51.7969 51.3398 51.7969 50.7812C51.7969 50.2227 52.2539 49.7656 52.8125 49.7656C53.3711 49.7656 53.8281 49.3086 53.8281 48.75C53.8281 48.1914 53.3711 47.7344 52.8125 47.7344C52.2539 47.7344 51.7969 47.2773 51.7969 46.7188C51.7969 46.1602 52.2539 45.7031 52.8125 45.7031C53.3711 45.7031 53.8281 45.2461 53.8281 44.6875C53.8281 44.1289 53.3711 43.6719 52.8125 43.6719C52.2539 43.6719 51.7969 43.2148 51.7969 42.6562C51.7969 42.0977 52.2539 41.6406 52.8125 41.6406C53.3711 41.6406 53.8281 41.1836 53.8281 40.625C53.8281 40.0664 53.3711 39.6094 52.8125 39.6094C52.2539 39.6094 51.7969 39.1523 51.7969 38.5938C51.7969 38.0352 52.2539 37.5781 52.8125 37.5781H57.8906C58.4492 37.5781 58.9062 37.1211 58.9062 36.5625V34.5312C58.9062 33.2109 59.7594 32.0734 60.9375 31.657V60.9375Z" fill="#009CDE"/>
</svg>
