<svg width="70" height="50" viewBox="0 0 70 50" fill="none" xmlns="http://www.w3.org/2000/svg">
<path d="M65.8344 0.210815H20.8721C19.0892 0.210815 19.0867 2.98787 20.8721 2.98787H65.8344C66.6001 2.98787 67.2229 3.61077 67.2229 4.3764V37.1898C67.2229 37.9555 66.6001 38.5783 65.8344 38.5783H41.5223C41.0972 38.5783 40.6957 38.7729 40.4323 39.1065L34.8315 46.2022L28.8912 39.0777C28.6274 38.7614 28.2367 38.5783 27.8247 38.5783H4.16558C3.39995 38.5783 2.77706 37.9555 2.77706 37.1898V4.3764C2.77706 3.61077 3.39995 2.98787 4.16558 2.98787H9.44921C11.2321 2.98787 11.2346 0.210815 9.44921 0.210815H4.16558C1.86868 0.210815 0 2.0795 0 4.3764V37.1898C0 39.4867 1.86868 41.3554 4.16558 41.3554H27.1747L33.7947 49.295C34.3537 49.9655 35.41 49.9518 35.9511 49.266L42.1953 41.3554H65.8344C68.1313 41.3554 70 39.4867 70 37.1898V4.3764C70 2.0795 68.1313 0.210815 65.8344 0.210815Z" fill="#009CDE"/>
<path d="M7.6891 18.0761C7.54205 18.5285 7.63689 19.0246 7.94042 19.3909L10.644 22.6549L10.3753 26.885C10.1643 30.1987 15.1394 26.6796 16.2127 26.701C17.2954 26.7226 22.2588 30.1612 22.0501 26.885L21.7813 22.6549L24.485 19.3909C25.1165 18.6288 24.7249 17.407 23.7601 17.1601L19.6543 16.1087L17.3855 12.5288C16.8557 11.6927 15.5729 11.6875 15.0398 12.5288L12.771 16.1087L8.66524 17.1601C8.20438 17.278 7.83615 17.6236 7.6891 18.0761ZM13.9934 18.6621C15.02 18.3994 15.6956 16.6814 16.2126 15.8656C16.7212 16.6682 17.415 18.4019 18.4317 18.6621L20.9486 19.3067L19.2911 21.3075C19.0654 21.58 18.9523 21.9283 18.9748 22.2813L19.1396 24.8744L16.7245 23.9164C16.3956 23.786 16.0294 23.786 15.7005 23.9164L13.2854 24.8744L13.4501 22.2813C13.4726 21.9283 13.3594 21.58 13.1338 21.3075L11.4764 19.3067L13.9934 18.6621Z" fill="#009CDE"/>
<path d="M43.3846 18.0762C43.2375 17.6238 42.8693 17.278 42.4084 17.16L38.3027 16.1086L36.0338 12.5287C35.5041 11.6925 34.2213 11.6874 33.6882 12.5287L31.4193 16.1086L27.3136 17.16C26.8528 17.278 26.4844 17.6238 26.3375 18.0762C26.1906 18.5285 26.2853 19.0247 26.5888 19.391L29.2925 22.655L29.0237 26.885C28.8125 30.1986 33.7879 26.6796 34.8611 26.701C35.9437 26.7227 40.9072 30.1612 40.6985 26.885L40.4296 22.655L43.1334 19.391C43.4368 19.0247 43.5316 18.5285 43.3846 18.0762ZM37.9396 21.3076C37.714 21.58 37.6008 21.9284 37.6233 22.2813L37.7881 24.8744C36.921 24.5305 35.8138 23.8186 34.8611 23.8186C33.9129 23.8186 32.7988 24.5313 31.9341 24.8744L32.0989 22.2813C32.1214 21.9284 32.0082 21.58 31.7826 21.3076L30.1251 19.3067L32.6419 18.6621C33.6685 18.3994 34.3441 16.6814 34.8611 15.8656C35.3697 16.6682 36.0636 18.4019 37.0802 18.6621L39.5971 19.3067L37.9396 21.3076Z" fill="#009CDE"/>
<path d="M62.0341 18.0762C61.8871 17.6236 61.5188 17.278 61.058 17.16L56.9522 16.1086L54.6834 12.5287C54.1537 11.6925 52.8708 11.6874 52.3377 12.5287L50.0689 16.1086L45.9632 17.16C45.0042 17.4055 44.6028 18.6239 45.2382 19.3908L47.942 22.6548L47.6731 26.8849C47.4621 30.198 52.4348 26.6794 53.5105 26.7009C54.5911 26.7224 59.5566 30.1619 59.3479 26.8849L59.0792 22.6548L61.7828 19.3908C62.0863 19.0247 62.1812 18.5285 62.0341 18.0762ZM56.5893 21.3076C56.3636 21.58 56.2505 21.9284 56.273 22.2813L56.4377 24.8744L54.0226 23.9165C53.6813 23.7861 53.3399 23.7861 52.9986 23.9165L50.5835 24.8744L50.7483 22.2813C50.7708 21.9284 50.6576 21.58 50.432 21.3076L48.7745 19.3067L51.2914 18.6621C52.3179 18.3994 52.9936 16.6814 53.5105 15.8656C54.0191 16.6682 54.713 18.4019 55.7296 18.6621L58.2465 19.3067L56.5893 21.3076Z" fill="#009CDE"/>
<path d="M14.4218 2.75285C15.4669 3.46905 16.8622 2.42835 16.5288 1.22921C16.3701 0.65825 15.8526 0.242385 15.2599 0.212948C14.6685 0.18365 14.1095 0.548417 13.897 1.10022C13.6682 1.69506 13.8849 2.40197 14.4218 2.75285Z" fill="#009CDE"/>
</svg>
