<svg width="79" height="79" viewBox="0 0 79 79" fill="none" xmlns="http://www.w3.org/2000/svg">
<path d="M6.56173 32.6308C7.20206 32.6308 7.72127 32.1115 7.72127 31.4712V17.2491C7.72127 15.4345 9.19743 13.9582 11.0121 13.9582H67.9865C69.8011 13.9582 71.2774 15.4344 71.2774 17.2491V25.9057C71.2774 26.5461 71.7964 27.0653 72.4369 27.0653C73.0774 27.0653 73.5965 26.5461 73.5965 25.9057V17.2491C73.5965 14.1557 71.0799 11.6393 67.9867 11.6393H11.0121C7.91877 11.6393 5.40234 14.1559 5.40234 17.2491V31.4712C5.40234 32.1117 5.9214 32.6308 6.56173 32.6308V32.6308Z" fill="#009CDE"/>
<path d="M77.8405 58.2721H73.597V30.5437C73.597 29.9034 73.0778 29.3842 72.4374 29.3842C71.7971 29.3842 71.2779 29.9034 71.2779 30.5437V58.2721H68.3963V51.0789C68.3963 50.4386 67.877 49.9194 67.2367 49.9194C66.5964 49.9194 66.0772 50.4386 66.0772 51.0789V58.2721H46.6188C45.9785 58.2721 45.4593 58.7913 45.4593 59.4316V60.3236C45.4593 60.5463 45.2781 60.7274 45.0555 60.7274H30.8384C30.6157 60.7274 30.4346 60.5463 30.4346 60.3236V59.4316C30.4346 58.7913 29.9154 58.2721 29.2751 58.2721H12.9225V19.1589H66.0773V46.4409C66.0773 47.0813 66.5965 47.6005 67.2369 47.6005C67.8772 47.6005 68.3964 47.0813 68.3964 46.4409V17.9994C68.3964 17.3591 67.8772 16.8398 67.2369 16.8398H11.7631C11.1228 16.8398 10.6036 17.3589 10.6036 17.9994V58.2721H7.72194V36.1092C7.72194 35.4689 7.20273 34.9497 6.5624 34.9497C5.92207 34.9497 5.40286 35.4689 5.40286 36.1092V58.2721H1.15954C0.519209 58.2721 0 58.7913 0 59.4316V62.9581C0 65.3857 1.97485 67.3605 4.4024 67.3605H74.5974C77.025 67.3605 78.9998 65.3855 78.9998 62.9581V59.4316C79 58.7912 78.4808 58.2721 77.8405 58.2721ZM76.6811 62.9581C76.6811 64.107 75.7465 65.0416 74.5976 65.0416H4.4024C3.2535 65.0416 2.31893 64.107 2.31893 62.9581V60.5912H28.1289C28.2638 61.9674 29.4275 63.0464 30.8387 63.0464H45.0558C46.4668 63.0464 47.6307 61.9674 47.7655 60.5912H76.6811V62.9581Z" fill="#009CDE"/>
<path d="M32.2084 49.0721C31.8892 49.6257 32.0793 50.3334 32.6329 50.6527C34.7125 51.8517 37.0873 52.4853 39.5005 52.4853C47.0922 52.4853 53.2686 46.3089 53.2686 38.7172C53.2686 31.1255 47.0922 24.949 39.5005 24.949C31.9088 24.949 25.7324 31.1253 25.7324 38.7172C25.7324 41.8596 26.819 44.933 28.792 47.3715C29.1939 47.8684 29.9227 47.9452 30.4195 47.5433C30.9163 47.1413 30.9933 46.4126 30.5912 45.9158C28.9267 43.8585 28.0469 41.3692 28.0469 38.7172C28.0469 32.4017 33.185 27.2634 39.5005 27.2634C45.816 27.2634 50.9541 32.4015 50.9541 38.7172C50.9541 45.0327 45.816 50.1708 39.5005 50.1708C37.4925 50.1708 35.5173 49.644 33.7889 48.6474C33.2354 48.3285 32.5278 48.5183 32.2084 49.0721V49.0721Z" fill="#009CDE"/>
<path d="M36.8661 45.4438C37.1085 45.4438 37.3495 45.3677 37.5521 45.2185L45.1205 39.649C45.4167 39.431 45.5919 39.0849 45.5919 38.717C45.5919 38.349 45.4169 38.0029 45.1205 37.7849L37.5521 32.2154C37.2006 31.9568 36.7335 31.9178 36.3439 32.1148C35.9545 32.3117 35.709 32.711 35.709 33.1475V44.2864C35.709 44.7229 35.9545 45.1222 36.3439 45.3191C36.509 45.4026 36.6878 45.4438 36.8661 45.4438V45.4438ZM38.0234 35.436L42.4822 38.7172L38.0234 41.9983V35.436Z" fill="#009CDE"/>
</svg>
