<svg width="53" height="53" viewBox="0 0 53 53" fill="none" xmlns="http://www.w3.org/2000/svg">
<path fill-rule="evenodd" clip-rule="evenodd" d="M52.65 26.1956C52.65 40.4916 40.8639 52.0807 26.325 52.0807C11.7861 52.0807 0 40.4916 0 26.1956C0 11.8997 11.7861 0.310547 26.325 0.310547C40.8639 0.310547 52.65 11.8997 52.65 26.1956ZM20.0836 38.6523C23.9324 40.7262 29.5621 41.0873 34.0621 37.9671C40.63 33.4118 41.2141 25.727 39.3566 22.0975C36.6663 16.8848 33.1334 18.0236 31.2568 19.1717C31.2315 19.1004 31.2063 19.0283 31.1808 18.9555C31.0807 18.6693 30.9768 18.3726 30.8547 18.0699C29.5047 14.6164 31.4578 12.5887 31.5632 12.4869C32.061 12.0054 32.061 11.2184 31.5632 10.737C31.0653 10.2463 30.2515 10.2463 29.744 10.7277C29.6004 10.8573 26.4792 13.922 28.4419 18.9495C29.476 21.5975 30.2419 25.1066 28.0015 26.7732C26.3643 27.9954 25.1388 27.625 23.291 27.0602C21.8165 26.6066 20.141 26.0973 18.0443 26.3936C13.6879 27.0139 11.821 30.5138 11.5337 33.5784C11.3997 34.995 11.8114 39.9485 13.3241 41.5966C13.5731 41.8743 13.9273 42.0132 14.2816 42.0132C14.5879 42.0132 14.8847 41.9114 15.1337 41.6984C15.6603 41.2447 15.7081 40.4577 15.239 39.9485C14.5784 39.2263 13.9369 35.4117 14.0901 33.8006C14.1284 33.421 14.2337 32.7174 14.5305 31.9489C15.4305 33.8099 17.3645 37.1894 20.0836 38.6523Z" fill="#00B140"/>
</svg>
