<svg width="118" height="118" viewBox="0 0 118 118" fill="none" xmlns="http://www.w3.org/2000/svg">
<path d="M59 0.375C26.6254 0.375 0.375 26.6254 0.375 59C0.375 91.3746 26.6254 117.625 59 117.625C91.3746 117.625 117.625 91.3746 117.625 59C117.625 26.6254 91.3746 0.375 59 0.375ZM59 107.68C32.1215 107.68 10.3203 85.8785 10.3203 59C10.3203 32.1215 32.1215 10.3203 59 10.3203C85.8785 10.3203 107.68 32.1215 107.68 59C107.68 85.8785 85.8785 107.68 59 107.68Z" fill="white"/>
<path d="M86.1393 57.3133L47.3918 29.1785C47.081 28.9507 46.7131 28.8136 46.329 28.7827C45.945 28.7517 45.5598 28.8279 45.2166 29.003C44.8733 29.178 44.5854 29.4449 44.3849 29.774C44.1844 30.103 44.0792 30.4813 44.081 30.8666V87.1363C44.081 88.8505 46.0177 89.8189 47.3918 88.8244L86.1393 60.6895C86.4068 60.4967 86.6246 60.2432 86.7749 59.9497C86.9252 59.6562 87.0035 59.3312 87.0035 59.0014C87.0035 58.6717 86.9252 58.3467 86.7749 58.0532C86.6246 57.7597 86.4068 57.5061 86.1393 57.3133ZM52.4299 74.8485V43.1543L74.2441 59.0014L52.4299 74.8485Z" fill="white"/>
</svg>
