<svg width="19" height="14" viewBox="0 0 19 14" fill="none" xmlns="http://www.w3.org/2000/svg">
<path d="M9.5 0C5.18182 0 1.49409 2.90267 0 7C1.49409 11.0973 5.18182 14 9.5 14C13.8182 14 17.5059 11.0973 19 7C17.5059 2.90267 13.8182 0 9.5 0ZM9.5 11.6667C7.11636 11.6667 5.18182 9.576 5.18182 7C5.18182 4.424 7.11636 2.33333 9.5 2.33333C11.8836 2.33333 13.8182 4.424 13.8182 7C13.8182 9.576 11.8836 11.6667 9.5 11.6667ZM9.5 4.2C8.06636 4.2 6.90909 5.45067 6.90909 7C6.90909 8.54933 8.06636 9.8 9.5 9.8C10.9336 9.8 12.0909 8.54933 12.0909 7C12.0909 5.45067 10.9336 4.2 9.5 4.2Z" fill="#149BDC"/>
</svg>
