<svg width="53" height="53" viewBox="0 0 53 53" fill="none" xmlns="http://www.w3.org/2000/svg">
<path fill-rule="evenodd" clip-rule="evenodd" d="M52.65 26.4254C52.65 40.7213 40.8639 52.3104 26.325 52.3104C11.7861 52.3104 0 40.7213 0 26.4254C0 12.1294 11.7861 0.540283 26.325 0.540283C40.8639 0.540283 52.65 12.1294 52.65 26.4254ZM26.6041 7.73058C32.6064 7.73058 37.3896 12.6707 37.3896 18.87C37.3896 24.4881 33.2629 29.2344 28.1047 29.9125V35.7243H31.481C32.3251 35.7243 33.0754 36.4992 33.0754 37.371C33.0754 38.2428 32.3251 39.0177 31.481 39.0177H28.1047V43.4735C28.1047 44.3452 27.3544 45.1201 26.5103 45.1201C25.6662 45.1201 24.9159 44.3452 24.9159 43.4735V39.0177H21.9148C21.0707 39.0177 20.3204 38.2428 20.3204 37.371C20.3204 36.4992 21.0707 35.7243 21.9148 35.7243H24.9159V29.8156C19.7577 29.0407 15.8187 24.3912 15.8187 18.87C15.8187 12.6707 20.6018 7.73058 26.6041 7.73058Z" fill="#D985B7"/>
</svg>
